<?xml version="1.0" encoding="UTF-8" standalone="no"?>
<svg
   width="311.75671"
   height="74.472534"
   version="1.1"
   id="svg4"
   sodipodi:docname="logo.svg"
   inkscape:version="1.4 (e7c3feb1, 2024-10-09)"
   inkscape:export-filename="logo-horizontal-slogan.png"
   inkscape:export-xdpi="96"
   inkscape:export-ydpi="96"
   xmlns:inkscape="http://www.inkscape.org/namespaces/inkscape"
   xmlns:sodipodi="http://sodipodi.sourceforge.net/DTD/sodipodi-0.dtd"
   xmlns="http://www.w3.org/2000/svg"
   xmlns:svg="http://www.w3.org/2000/svg">
  <sodipodi:namedview
     id="namedview4"
     pagecolor="#530000"
     bordercolor="#000000"
     borderopacity="0.25"
     inkscape:showpageshadow="2"
     inkscape:pageopacity="0.0"
     inkscape:pagecheckerboard="0"
     inkscape:deskcolor="#d1d1d1"
     showguides="false"
     inkscape:zoom="1.8221178"
     inkscape:cx="150.10006"
     inkscape:cy="36.495994"
     inkscape:window-width="1456"
     inkscape:window-height="858"
     inkscape:window-x="0"
     inkscape:window-y="38"
     inkscape:window-maximized="0"
     inkscape:current-layer="svg4" />
  <defs
     id="defs1">
    <rect
       x="116.34813"
       y="206.35329"
       width="190.98656"
       height="31.831093"
       id="rect6" />
    <rect
       x="313.92044"
       y="-15.366735"
       width="420.93878"
       height="99.334961"
       id="rect5" />
    <rect
       x="123.48269"
       y="104.82308"
       width="159.15547"
       height="29.635845"
       id="rect2" />
  </defs>
  <text
     xml:space="preserve"
     id="text6"
     style="font-style:normal;font-variant:normal;font-weight:normal;font-stretch:normal;font-size:29.3333px;font-family:Merriweather;-inkscape-font-specification:Merriweather;text-align:start;writing-mode:lr-tb;direction:ltr;white-space:pre;shape-inside:url(#rect6);display:inline;opacity:1;fill:#ffffff;fill-opacity:1;stroke:#ffffff;stroke-opacity:1"
     transform="translate(-10.621647,-49.596674)" />
  <text
     xml:space="preserve"
     style="font-weight:300;font-size:21.3333px;font-family:Merriweather;-inkscape-font-specification:'Merriweather Light';text-align:start;writing-mode:lr-tb;direction:ltr;text-anchor:start;opacity:0.3;fill:#bbbbbb;stroke:#ffffff"
     x="163.35173"
     y="23.395315"
     id="text4"><tspan
       sodipodi:role="line"
       id="tspan4"
       x="163.35173"
       y="23.395315" /></text>
  <g
     transform="scale(0.28346457)"
     fill="#ffffff"
     id="g3">
    <svg
       width="400"
       height="263"
       viewBox="0 0 400 263"
       version="1.1"
       id="svg2">
      <g
         stroke="none"
         class="c1"
         id="g2">
        <path
           d="m 323.81502,1.3630523 c 0,2.4613018 -3.9227,9.7682917 -6.76858,12.6910877 -4.15345,4.384194 -6.384,4.461109 -14.6909,0.615325 -4.15344,-1.922892 -8.69147,-3.38429 -11.07586,-3.615037 -11.76809,-1.2306507 -22.92087,8.076147 -24.15152,20.228824 -0.23075,2.307471 -0.76916,4.153447 -1.07682,4.153447 -0.9999,0 -0.84607,-8.999135 0.15383,-12.537256 1.15374,-4.307278 0.4615,-5.076435 -1.53831,-1.769061 -2.9228,4.691857 -3.07663,14.537064 -0.38458,21.536391 1.07682,2.922796 -1.30757,0.846073 -5.3841,-4.538025 -5.15335,-6.845496 -9.07605,-9.922123 -14.38323,-11.152774 -7.76848,-1.845976 -14.84473,0.692241 -23.38237,8.383809 -5.15335,4.691857 -8.22997,5.922508 -12.07576,4.845688 -2.92279,-0.769156 -2.76896,-1.922892 0.30766,-2.692049 1.38449,-0.384578 2.9228,-0.999903 3.30738,-1.384482 1.15373,-1.230651 -2.07672,-3.461205 -6.46092,-4.538025 -3.23046,-0.769157 -4.53802,-0.692241 -8.30689,0.384578 -3.69196,1.07682 -5.23027,2.076724 -8.84531,5.768677 l -4.30727,4.538025 -1.30757,-2.076724 c -5.92251,-9.306797 -13.99865,-9.999038 -21.22873,-1.845976 -1.76906,1.999808 -3.53812,4.384194 -3.99961,5.307182 -0.4615,0.999904 -1.15374,1.769061 -1.53832,1.769061 -0.38458,0 -0.46149,-0.769157 -0.23074,-1.769061 0.30766,-0.922988 0.69224,-2.692049 0.9999,-3.9227 l 0.46149,-2.30747 -2.23055,1.615229 c -1.23065,0.922988 -4.46111,3.691953 -7.23008,6.23017 -4.69185,4.307278 -4.99951,4.768773 -4.9226,7.768484 0.15383,4.153447 1.07682,5.076435 5.15335,5.076435 2.38439,0 4.3842,-0.692241 7.30699,-2.615133 5.84559,-3.768868 9.61446,-3.999616 15.22931,-0.922988 2.4613,1.307566 5.23026,2.384386 6.15325,2.384386 0.92299,0 4.30728,-1.230651 7.53774,-2.768965 4.99952,-2.384386 6.46091,-2.768964 9.76829,-2.461301 5.92251,0.615325 6.69166,2.153639 0.9999,2.153639 -3.9227,0 -5.07643,0.384578 -8.38381,2.692048 -6.84549,4.768773 -10.07595,5.999424 -15.07547,5.614845 -2.53822,-0.153831 -4.53803,-0.07692 -4.53803,0.153832 0,1.23065 4.30728,2.30747 8.84531,2.30747 3.99961,0 5.92251,-0.461494 10.46053,-2.692049 3.15354,-1.461398 6.384,-2.692049 7.23007,-2.692049 0.84608,0 3.61504,0.922988 6.15326,1.999808 10.3067,4.384194 14.07557,4.153447 22.15172,-1.307567 3.07662,-1.999807 7.15315,-4.076531 9.07605,-4.61494 3.23045,-0.846073 4.07653,-0.769157 8.07614,0.769156 12.30651,4.691857 12.92184,4.845688 17.69061,4.46111 5.46101,-0.384579 10.69128,-2.538218 16.07538,-6.614749 2.92279,-2.230554 4.69185,-4.538025 7.30699,-9.306797 5.76867,-10.768196 9.07605,-12.152678 22.92087,-9.537545 7.69157,1.461398 11.92193,0.692242 17.53677,-2.999711 3.99962,-2.615133 7.99924,-8.229978 7.99924,-11.22969 0,-1.845976 -0.23075,-1.692145 -3.38429,1.845977 -4.30728,4.922603 -9.38372,7.537736 -15.61389,7.922315 -3.23046,0.230747 -4.84569,0.07692 -4.84569,-0.53841 0,-0.461494 0.76916,-0.846072 1.76906,-0.846072 4.92261,-0.07692 13.84483,-6.845496 16.61379,-12.537256 1.92289,-3.999616 2.69205,-9.4606292 1.99981,-13.5371603 -0.53841,-3.15354294 -1.92289,-4.3841938 -1.92289,-1.8459764"
           id="i1" />
        <path
           d="m 239.43852,20.591973 c -1.84598,0.615325 -3.30738,1.384482 -3.30738,1.615229 0,0.307663 2.53822,0.53841 5.61485,0.53841 4.61494,0 6.15325,0.384578 9.30679,2.153639 4.46111,2.461302 4.30728,2.461302 4.30728,0.692241 0,-1.538314 -2.38438,-3.999616 -5.15335,-5.461013 -2.23055,-1.153736 -6.84549,-0.999904 -10.76819,0.461494"
           id="i2" />
        <path
           d="m 200.21152,23.437853 c -3.23046,1.076819 -9.46063,5.384098 -9.46063,6.614748 0,0.384579 1.4614,0 3.30737,-0.769156 4.84569,-2.153639 10.7682,-2.538218 17.84444,-1.230651 3.38429,0.615325 6.30709,0.922988 6.53783,0.692241 0.76916,-0.769157 -4.61494,-4.768772 -7.46082,-5.537929 -3.76886,-1.07682 -6.76858,-0.999904 -10.76819,0.230747"
           id="i3" />
        <path
           d="m 230.43938,59.895886 c -0.69224,1.153735 9.07605,7.922315 13.30641,9.152966 8.84531,2.538217 19.30584,0 26.99741,-6.537833 3.61503,-3.076627 2.61513,-3.768868 -1.84598,-1.230651 -4.76877,2.615133 -10.53745,4.153447 -16.30612,4.153447 -3.84579,0 -5.69176,-0.53841 -10.99895,-3.076627 -5.99942,-2.922796 -10.3067,-3.845785 -11.15277,-2.461302"
           id="i4" />
        <path
           d="m 135.75618,65.433815 c -0.23075,0.384578 -0.4615,4.153447 -0.4615,8.229978 0,4.153446 -0.46149,16.844534 -1.07682,28.304967 -0.61532,11.38352 -1.23065,25.61293 -1.30756,31.53543 l -0.23075,10.7682 h 10.38362 10.38361 l -0.23074,-6.53783 c -0.0769,-3.61504 -0.92299,-15.38314 -1.76906,-26.15134 -0.92299,-10.76819 -1.84598,-25.689834 -2.15364,-33.073739 l -0.4615,-13.460245 -6.30708,-0.230747 c -3.69196,-0.153831 -6.46092,0.07692 -6.76858,0.615326 m 10.69128,21.690222 c 0.69224,4.461109 2.15364,40.688393 1.69214,41.149893 -0.23075,0.30766 -0.61532,0.30766 -0.76915,0.15383 -0.30767,-0.30767 -1.69215,-19.69042 -2.38439,-34.76589 -0.30766,-5.768676 -0.15383,-8.999135 0.30766,-8.999135 0.4615,0 0.92299,1.153735 1.15374,2.461302"
           id="i5" />
        <path
           d="m 161.21527,72.202395 c -0.23075,0.384578 -0.4615,2.230554 -0.53841,4.076531 -0.0769,1.845976 -0.76916,15.690799 -1.53832,30.689354 -0.76915,14.99856 -1.46139,29.53562 -1.61522,32.30459 l -0.15384,4.99952 9.38372,0.23075 9.38371,0.23074 v -2.92279 c 0,-1.61523 -0.46149,-9.53755 -1.07682,-17.53678 -1.38448,-17.99827 -2.9228,-42.380539 -3.07663,-48.0723 l -0.0769,-4.230362 -5.15335,-0.230747 c -2.76897,-0.153832 -5.30719,0.07691 -5.53793,0.461494"
           id="i6" />
        <path
           d="m 182.67474,72.356226 c -0.23074,0.384578 -0.38458,2.922796 -0.30766,5.614845 0.0769,2.615133 -0.23075,11.691183 -0.76916,20.151908 -0.46149,8.460721 -1.23065,22.459381 -1.53831,31.150851 -0.53841,13.69099 -0.46149,15.92155 0.53841,16.6907 0.69224,0.53841 0.92299,1.23065 0.61532,1.53832 -0.30766,0.38457 -19.84424,0.76915 -43.38044,0.9999 l -42.842034,0.38458 -0.461494,22.15172 c -0.307663,12.15267 -0.692241,22.38246 -0.999904,22.61321 -0.230747,0.23074 -0.692241,0.23074 -0.999904,-0.0769 -0.769156,-0.76916 -1.845976,-31.68926 -1.461397,-40.84223 l 0.384578,-7.69157 18.305935,-0.38457 18.30593,-0.38458 0.23075,-12.92184 c 0.0769,-7.8454 -0.0769,-12.84492 -0.53841,-12.84492 -0.38458,0 -16.84454,7.99924 -36.534952,17.69061 L 55.37929,153.88685 v 18.76742 c 0,10.46054 -0.307662,18.99818 -0.692241,19.22892 -0.384578,0.30767 -12.844918,1.38449 -27.689645,2.53822 C 12.152678,195.57515 0,196.72888 0,197.03655 c 0,0.92298 19.152005,1.53831 64.993751,2.23055 25.382174,0.30766 46.226319,0.69224 46.380159,0.69224 0.0769,0.0769 0.15383,0.38458 0.15383,0.69224 0,0.38458 -11.537354,0.92299 -25.536008,1.15374 -23.613115,0.38458 -35.227382,1.38448 -35.227382,2.84588 0,0.30766 1.461398,0.76915 3.307374,1.07682 5.537929,0.84607 17.45986,3.84578 17.45986,4.38419 0,0.30766 -7.153159,0.76916 -15.921547,0.9999 -21.997884,0.69225 -42.611287,1.76907 -43.149697,2.30748 -0.230747,0.23074 -0.230747,0.61532 -0.07691,0.76915 0.153831,0.15383 8.922219,0.53841 19.382751,0.84607 18.767427,0.61533 19.152005,0.61533 19.76733,2.30748 0.615326,1.69214 0.692242,1.69214 29.381791,2.15363 35.611968,0.53841 81.376798,2.15364 81.376798,2.84588 0,0.69225 -11.07587,1.38449 -31.92001,1.99981 -8.8453,0.30766 -16.45996,0.76916 -16.92145,1.07682 -0.38458,0.30766 -16.998371,0.76916 -36.919532,1.07682 -36.304202,0.53841 -44.226517,0.84607 -44.226517,2.07672 0,0.38458 2.538218,0.69225 5.614845,0.69225 2.999711,0 17.152197,0.38457 31.304682,0.84607 22.843957,0.84607 25.920585,1.07682 26.920488,2.23055 1.230651,1.4614 -2.461301,1.30757 63.686194,2.76897 36.38111,0.84607 29.15104,1.84597 -24.45919,3.30737 -39.380835,1.15374 -72.300746,2.38439 -75.146627,2.84588 -4.153446,0.61533 -2.84588,1.84598 1.922892,1.84598 4.691857,0 29.612538,1.15373 43.457365,1.99981 8.53764,0.46149 10.46053,1.30756 5.15335,2.15364 -5.3841,0.84607 -3.30737,1.84597 4.84569,2.30747 16.53687,1.07682 59.07124,1.9998 88.22229,1.92289 31.30467,0 86.60705,-1.61523 87.53003,-2.53822 0.84607,-0.84607 -1.53831,-1.99981 -4.23036,-1.99981 -2.84588,0 -3.46121,-1.30756 -0.76916,-1.84597 0.92299,-0.23075 8.61456,-0.53841 17.07528,-0.76916 36.84261,-1.07682 43.45736,-1.53831 41.84213,-3.15354 -0.15383,-0.15384 -18.30593,-0.76916 -40.30381,-1.4614 -39.91924,-1.23065 -70.45477,-2.61513 -71.07009,-3.23046 -0.15383,-0.15383 -0.15383,-0.46149 0,-0.61533 0.38457,-0.38457 49.99519,-1.9998 59.99424,-1.9998 6.384,0 7.53773,-0.23075 8.46071,-1.4614 0.99991,-1.38448 3.23046,-1.53832 35.30431,-2.38439 18.84433,-0.53841 34.3813,-1.07682 34.53514,-1.23065 1.69215,-1.61523 -4.69187,-1.99981 -43.45736,-2.61513 -23.22853,-0.30766 -43.22661,-0.84607 -44.53418,-1.07682 -1.23065,-0.23075 -13.61407,-0.76916 -27.4589,-1.30757 -13.92173,-0.53841 -25.22834,-1.15373 -25.22834,-1.4614 0,-0.30766 9.46063,-0.76915 20.99797,-1.07682 11.46044,-0.30766 30.45862,-0.84607 42.07288,-1.23065 11.61427,-0.38457 28.15114,-0.69224 36.68878,-0.76915 14.07558,0 17.92136,-0.4615 15.61388,-1.92289 -2.15364,-1.38449 1.61523,-1.76907 20.38266,-2.30748 11.22969,-0.30766 20.38265,-0.84607 20.38265,-1.15373 0,-0.92299 -7.9223,-1.4614 -33.07374,-2.30747 -12.92183,-0.4615 -23.92077,-0.9999 -24.38227,-1.15374 -2.53822,-0.84607 -0.23075,-1.76906 8.61456,-3.53812 5.30718,-0.9999 9.61446,-2.07672 9.61446,-2.38438 0,-1.38449 -12.46033,-2.30747 -38.38092,-2.84588 -17.69061,-0.38458 -23.45928,-0.69224 -23.76694,-1.4614 -0.23075,-0.69224 7.99923,-0.92299 39.61157,-0.92299 35.91962,0 72.99297,-0.9999 73.99288,-1.92289 0.15384,-0.23075 0.15384,-0.53841 0,-0.69224 -0.38458,-0.30767 -29.84329,-2.69205 -42.22671,-3.38429 l -9.61446,-0.53841 -0.38458,-14.53707 -0.38458,-14.53706 -3.07663,-1.07682 c -1.69214,-0.61533 -7.92231,-2.30747 -13.84482,-3.76887 -5.92251,-1.53831 -14.30632,-3.76887 -18.53668,-4.99952 -4.30728,-1.23065 -7.99923,-2.23055 -8.15306,-2.23055 -0.23075,0 -0.61533,8.46072 -0.84607,18.76742 -0.53841,18.53668 -0.99991,23.5362 -2.07673,23.5362 -1.15373,0 -1.53831,-12.53725 -1.53831,-46.30324 v -34.45822 l -13.2295,-6.61475 -13.30641,-6.537834 -9.22988,5.153354 c -11.15278,6.23017 -11.07586,6.15325 -9.15297,7.61465 1.4614,1.07682 1.4614,1.07682 -0.0769,1.15373 -0.84608,0 -6.76858,-2.53821 -13.15259,-5.69176 -6.384,-3.07662 -12.84491,-6.23017 -14.38323,-6.99932 l -2.84588,-1.30757 -11.3066,6.384 c -6.30709,3.46121 -12.30651,6.99933 -13.46025,7.76849 -2.15364,1.46139 -2.15364,1.46139 -2.84588,-0.30767 -0.30766,-0.9999 -0.84607,-4.23036 -1.15373,-7.15316 -2.61514,-27.843472 -2.15364,-25.612918 -5.07644,-26.689737 -2.76896,-0.922988 -3.07662,-2.461302 -0.38458,-1.999808 2.38439,0.461494 3.61504,-0.922988 3.30738,-3.768868 -0.23075,-2.076724 -0.38458,-2.153639 -4.99952,-2.384386 -2.69205,-0.153832 -4.9226,0.153831 -5.23027,0.615325 m 45.99558,39.611574 c 1.15374,1.4614 1.92289,3.07663 1.69215,3.46121 -0.23075,0.46149 0.46149,1.15373 1.53831,1.53831 1.53831,0.53841 1.99981,1.23065 1.76906,2.53822 -0.23075,1.4614 -0.69224,1.69214 -4.07653,1.69214 h -3.84579 l -0.23074,-5.99942 c -0.15383,-3.23046 0.0769,-5.92251 0.38458,-5.92251 0.30766,0 1.61522,1.23065 2.76896,2.69205 m 16.45996,8.76839 c 1.07682,1.4614 1.38448,2.4613 0.92298,2.9228 -0.46149,0.46149 -0.69224,2.4613 -0.53841,4.53802 0.23075,3.23046 0.4615,3.76887 2.15364,4.15345 3.38429,0.76915 2.30747,2.69205 -1.53831,2.69205 h -3.46121 l -0.23074,-8.3069 c -0.0769,-4.53802 0.0769,-8.22998 0.46149,-8.22998 0.30766,0 1.38448,0.99991 2.23056,2.23056 m -31.76618,2.15364 c 0.69224,4.46111 0.53841,57.91751 -0.15383,57.91751 -0.92299,0 -1.69215,-19.45967 -1.69215,-42.07288 0,-17.30603 0.61533,-22.92087 1.84598,-15.84463 m 58.91741,21.38256 c 0,12.92183 -0.30766,23.45928 -0.61532,23.45928 -0.84607,0 -1.76906,-36.53495 -1.15374,-42.61129 0.23075,-2.38438 0.76916,-4.30727 1.07682,-4.30727 0.38458,0 0.69224,10.53744 0.69224,23.45928 m -66.60898,-12.53726 c 0.61533,9.69138 -0.9999,49.84136 -1.99981,49.84136 -0.69224,0 -0.84607,-42.84203 -0.0769,-52.14883 0.23075,-3.4612 0.69224,-6.30708 0.9999,-6.30708 0.30766,0 0.76916,3.84578 1.07682,8.61455 m 56.30228,-3.07663 c 0.69224,5.30719 0.61533,41.84214 -0.15383,42.99587 -1.4614,2.4613 -1.84598,-2.38439 -1.84598,-23.99769 0,-23.07471 0.69224,-29.22796 1.99981,-18.99818 m -29.84328,-1.30756 c 0.15383,0.15383 0.30766,1.30756 0.30766,2.53822 0.0769,1.30756 0.53841,2.53821 1.15373,2.76896 2.30747,0.92299 0.92299,2.69205 -2.4613,3.23046 -5.15335,0.76916 -5.76867,0.23075 -5.76867,-4.53803 0,-2.30747 0.23074,-4.38419 0.53841,-4.61494 0.46149,-0.46149 5.53792,0.0769 6.23017,0.61533 m 53.07182,1.30756 c 0.15384,0.84608 -0.23075,1.38449 -0.92299,1.38449 -1.61523,0 -1.53832,0.46149 0.38458,2.38438 2.23055,2.23056 0.99991,3.15355 -3.61504,2.84588 l -3.76887,-0.23074 -0.23075,-2.99972 c -0.38457,-4.61494 0.0769,-5.23026 4.23037,-4.9226 2.76896,0.15383 3.76886,0.53841 3.9227,1.53831 m -35.22739,12.61418 c 0.15384,0.23074 -0.23074,0.76915 -0.9999,1.15373 -1.92289,1.07682 -1.76906,5.30718 0.23075,5.84559 0.84607,0.23075 1.53831,0.92299 1.53831,1.53832 0,0.84607 -0.92299,0.9999 -3.99961,0.84607 l -4.07654,-0.23075 -0.23074,-4.15344 c -0.38458,-5.99943 0,-6.53784 3.84578,-5.92251 1.76906,0.30766 3.46121,0.69224 3.69195,0.92299 m -16.15229,0 c 0,0.30766 -0.53841,0.92298 -1.15373,1.38448 -1.4614,1.07682 -0.76916,5.84559 0.84607,5.84559 2.53822,0 0.76915,1.4614 -2.38439,1.99981 -5.15335,0.76915 -5.76867,0.23075 -5.76867,-4.53803 0,-2.30747 0.23074,-4.38419 0.53841,-4.61494 0.61532,-0.69224 7.92232,-0.69224 7.92232,-0.0769 m 51.53351,0.23074 c 0,0.38458 -0.53841,0.84608 -1.15375,1.15374 -0.69224,0.23075 -1.15373,1.38448 -1.15373,2.76896 0,1.38449 0.4615,2.53822 1.15373,2.76897 2.53823,0.9999 0.923,1.92289 -2.84588,1.69214 l -4.07653,-0.23074 -0.23075,-3.38429 c -0.38457,-4.99952 0,-5.46102 4.46111,-5.46102 2.07673,0 3.8458,0.30767 3.8458,0.69224 m -171.52197,15.46006 c 0,0.38457 -0.53841,0.76915 -1.15374,0.76915 -1.69214,0 -1.38448,2.15364 0.4615,3.07663 1.07682,0.61532 1.46139,1.4614 1.30756,2.9228 -0.23074,1.76906 -0.61532,2.07672 -3.15354,2.30747 -1.61523,0.15383 -3.46121,-0.15384 -4.07654,-0.69225 -1.07681,-0.92298 -1.5383,-7.61465 -0.53841,-8.61455 0.76916,-0.84607 7.15316,-0.61533 7.15316,0.23075 m 13.30641,1.84597 c -0.38458,2.30747 -0.23075,2.69205 1.38448,2.9228 1.38449,0.15383 1.84598,0.69224 1.84598,2.15364 0,1.84597 -0.23075,1.92289 -4.23035,1.92289 h -4.23037 l -0.23074,-3.76887 c -0.30767,-5.07643 0.0769,-5.84559 3.23046,-5.84559 2.61512,0 2.69204,0.0769 2.23054,2.61513 m 17.45986,-1.92289 c 0,0.38458 -0.69224,0.84607 -1.53831,1.07682 -2.07673,0.53841 -1.9229,1.76906 0.38458,3.30737 2.84588,1.84598 2.4613,3.84579 -0.76916,4.46111 -4.23035,0.84608 -5.76867,-0.46149 -5.76867,-4.84568 0,-1.99981 0.23075,-3.9227 0.53841,-4.15345 0.76916,-0.76916 7.15316,-0.61533 7.15316,0.15383 m 12.69109,2.38439 c 0.53841,1.46139 1.38448,2.69204 1.99981,2.69204 0.61532,0 1.07682,0.76916 1.07682,1.9229 0,1.76906 -0.23075,1.92289 -3.84579,1.92289 h -3.84578 l -0.23075,-3.76887 c -0.30766,-4.76877 0.15383,-5.99942 2.30747,-5.69176 1.07682,0.15383 1.92289,1.07682 2.53822,2.9228 m 17.30603,-2.30747 c 0,0.38457 -0.53841,0.76915 -1.15374,0.76915 -1.61523,0 -1.4614,1.99981 0.23075,3.23046 0.76915,0.53841 1.61523,1.61523 1.92289,2.38439 0.61533,1.69214 -2.61513,3.15354 -5.76868,2.4613 -1.9998,-0.4615 -2.15364,-0.76916 -2.15364,-4.53803 0,-2.23055 0.23075,-4.30727 0.53841,-4.53802 0.76916,-0.84607 6.38401,-0.61533 6.38401,0.23075 m 59.22507,0 c 0,0.38457 -0.53841,0.76915 -1.15373,0.76915 -1.69215,0 -1.38449,2.30747 0.53841,4.3842 2.23055,2.38438 1.07681,3.4612 -3.69196,3.15354 l -3.76887,-0.23075 -0.23074,-3.38429 c -0.38458,-4.99952 0,-5.46101 4.46111,-5.46101 2.07672,0 3.84578,0.30766 3.84578,0.76916 m 49.61062,0.69224 c -0.23075,0.84607 -0.0769,1.69214 0.38457,1.9998 0.4615,0.23075 0.61532,0.84608 0.30766,1.23066 -0.23075,0.46149 0.15384,1.23065 0.92298,1.84597 1.30757,0.92299 1.30757,1.07682 0.23075,1.53832 -0.69224,0.23074 -2.76896,0.38457 -4.61494,0.23074 -3.30737,-0.23074 -3.38429,-0.30766 -3.61504,-3.23046 -0.38457,-4.38419 0.15383,-5.07643 3.69196,-5.07643 2.76896,0 3.15354,0.15383 2.69205,1.4614 m -49.61062,13.84482 c 0,0.38458 -0.53841,0.84607 -1.15373,1.15373 -1.84598,0.69225 -1.38449,3.38429 0.84607,4.76878 2.61513,1.76906 1.4614,2.61513 -3.61504,2.84588 l -4.15345,0.15383 -0.23074,-4.84569 -0.23075,-4.76877 h 4.30728 c 2.30747,0 4.23036,0.30766 4.23036,0.69224 m 51.53351,0.0769 c 0,0.38458 -0.53841,0.76916 -1.15374,0.76916 -1.53831,0 -1.53831,3.69195 0.0769,5.53793 1.15373,1.23065 1.15373,1.38448 0.0769,1.76906 -0.61532,0.30766 -2.4613,0.38458 -4.07653,0.23075 -2.92279,-0.23075 -2.99971,-0.30766 -3.23046,-3.61504 -0.38457,-4.99952 0,-5.46101 4.46112,-5.46101 2.07673,0 3.84579,0.30766 3.84579,0.76915 m -172.52188,1.61523 c 2.15364,0.84608 2.15364,0.84608 0.4615,1.53832 -2.23056,0.76915 -2.30747,3.4612 -0.23075,4.53802 0.84607,0.4615 1.53831,1.38449 1.53831,1.99981 0,0.92299 -0.84607,1.07682 -3.99961,0.92299 l -4.07653,-0.23075 -0.23075,-3.76887 c -0.15383,-2.07672 -0.0769,-4.23036 0.15383,-4.76877 0.4615,-1.30757 3.38429,-1.38448 6.384,-0.23075 m 31.76618,0.4615 c 0.23075,0.15383 -0.23075,0.69224 -0.9999,1.07682 -1.76906,0.9999 -1.69215,3.53812 0.23074,4.53802 0.84608,0.4615 1.53832,1.38449 1.53832,1.99981 0,0.92299 -0.84608,1.07682 -3.99962,0.92299 l -4.07653,-0.23075 -0.23075,-3.76887 c -0.38457,-5.53793 0,-6.07634 3.9227,-5.46101 1.76906,0.30766 3.38429,0.69224 3.61504,0.92299 m 29.99712,-0.0769 c 0.15383,0.23075 -0.23075,0.76916 -0.99991,1.15374 -1.92289,1.07682 -1.61523,2.61513 0.84607,4.38419 2.76896,2.07672 1.46139,3.38429 -2.99971,3.07663 l -3.38429,-0.23075 -0.23074,-4.9226 -0.23075,-4.92261 3.30737,0.53841 c 1.76906,0.30767 3.46121,0.69225 3.69196,0.92299 m 14.61398,0.0769 c 0.23073,0.23075 -0.23075,0.69224 -0.99991,1.07682 -1.99981,1.15373 -1.61523,2.69205 1.15374,4.84569 2.92278,2.30747 1.99979,2.99971 -3.30738,2.61513 l -3.38429,-0.23075 -0.23074,-3.76887 c -0.38458,-5.30718 0,-5.84559 3.4612,-5.30718 1.61523,0.23075 3.07663,0.61533 3.30738,0.76916 m -59.76349,0.61532 c -0.15383,0.38458 -0.69224,0.76916 -1.15373,0.76916 -0.53841,0 -1.07682,0.76916 -1.23065,1.69215 -0.23075,1.30756 0.23074,1.9998 1.76906,2.53821 3.38429,1.30757 1.92289,2.69205 -2.76897,2.69205 h -4.15345 l -0.23074,-3.38429 c -0.38458,-5.07643 0.0769,-5.61484 4.23036,-5.30718 2.07672,0.15383 3.61504,0.53841 3.53812,0.9999 m 30.53553,-0.46149 c 0,0.38458 -0.53841,0.84607 -1.15374,1.15373 -1.76906,0.69225 -1.4614,4.07654 0.4615,4.53803 3.07661,0.84607 1.15373,2.4613 -2.84588,2.4613 h -3.76887 l -0.23075,-3.38429 c -0.38458,-4.9226 0.0769,-5.46101 4.07653,-5.46101 1.92289,0 3.46121,0.30766 3.46121,0.69224"
           id="i7" />
        <path
           d="m 174.90626,258.03068 c -0.23075,0.61533 -0.30766,1.92289 -0.15383,2.9228 l 0.23074,1.76906 h 24.61302 24.61302 v -2.69205 -2.69205 l -24.45919,-0.23075 c -20.69031,-0.15383 -24.45918,0 -24.84376,0.92299"
           id="i8" />
        <path
           d="m 129.06451,258.26143 c -6.69166,0.15383 -12.15267,0.53841 -12.15267,0.92299 0,0.76915 10.84511,1.46139 34.07364,2.15363 l 17.61369,0.4615 -0.30766,-1.84598 -0.23075,-1.84597 h -13.46024 c -7.38391,-0.0769 -18.92126,0.0769 -25.53601,0.15383"
           id="i9" />
        <path
           d="m 230.28555,258.87675 c -0.9999,2.4613 0.0769,2.9228 6.99933,2.84588 13.46024,-0.23074 45.76483,-1.9998 45.76483,-2.4613 0,-0.30766 -8.84531,-0.76916 -19.76733,-0.9999 -29.53562,-0.76916 -32.53534,-0.76916 -32.99683,0.61532"
           id="i10" />
      </g>
    </svg>
  </g>
  <path
     style="font-weight:300;font-size:13.3333px;font-family:Merriweather;-inkscape-font-specification:'Merriweather Light';opacity:0.3;fill:#bbbbbb;stroke:#ffffff"
     d="m 115.69053,48.594982 v -0.226666 l 3.11333,0.0067 v 0.226666 l -1.08,0.226666 2.15333,7.993314 0.14,0.999997 0.16,-1.039997 1.76666,-6.386651 -0.44666,-1.639996 -0.96,-0.146666 v -0.233333 h 3.13332 v 0.233333 l -1.11999,0.146666 1.95999,8.073313 0.14,0.993331 0.18667,-1.039997 2.10666,-7.946647 -1.21333,-0.226666 v -0.233333 h 2.67333 v 0.233333 l -0.79334,0.226666 -2.73332,9.446643 h -0.87333 l -1.78667,-6.78665 -1.95999,6.78665 h -0.88667 l -2.73332,-9.45331 z m 13.49331,9.239976 V 47.88165 l -0.90666,-0.126666 v -0.18 l 1.46,-0.213333 h 0.28 l 0.0933,0.08667 v 4.133323 l -0.02,1.15333 q 0.24,-0.299999 0.59333,-0.599998 0.36,-0.3 0.81333,-0.499999 0.45333,-0.2 0.97333,-0.2 0.78,0 1.18667,0.353333 0.40666,0.353332 0.55333,0.959997 0.14666,0.606666 0.14666,1.379997 v 3.706657 l 0.76667,0.206666 v 0.24 h -2.53333 v -0.24 l 0.82,-0.206666 v -3.65999 q 0,-0.619999 -0.08,-1.093331 -0.08,-0.473332 -0.34,-0.739998 -0.26,-0.266666 -0.80666,-0.266666 -0.44,0 -0.78667,0.09333 -0.34,0.09333 -0.64666,0.279999 -0.3,0.186666 -0.64,0.459999 v 4.926654 l 0.81333,0.206666 v 0.24 h -2.55333 v -0.24 z m 9.37997,0.593332 q -0.92666,0 -1.59333,-0.406666 -0.66666,-0.413332 -1.02666,-1.166663 -0.36,-0.759998 -0.36,-1.806662 0,-0.893331 0.26,-1.57333 0.26667,-0.679998 0.7,-1.146663 0.43333,-0.466666 0.95333,-0.699999 0.52666,-0.239999 1.04666,-0.239999 1.11333,0 1.78,0.626665 0.66666,0.619998 0.68,1.813329 0.007,0.393332 -0.0133,0.613332 -0.02,0.213332 -0.0533,0.379999 h -4.26666 q 0,0.566665 0.1,1.126663 0.10667,0.559999 0.34,1.019998 0.23334,0.459999 0.62,0.739998 0.38667,0.273333 0.95333,0.273333 0.57333,0 1.08667,-0.206667 0.51333,-0.206666 0.80666,-0.453332 l 0.14,0.266666 q -0.24,0.233333 -0.58666,0.426666 -0.34,0.186666 -0.74667,0.299999 -0.4,0.113333 -0.82,0.113333 z m -1.88666,-3.89999 3.31333,-0.12 q 0.0267,-0.153333 0.0267,-0.286666 0.007,-0.139999 0.007,-0.279999 0,-1.006664 -0.34667,-1.559996 -0.34666,-0.559999 -1.09999,-0.559999 -0.50667,0 -0.87334,0.253333 -0.35999,0.246666 -0.58666,0.659998 -0.22667,0.406666 -0.33333,0.906665 -0.10667,0.493332 -0.10667,0.986664 z m 4.82,3.753324 v -0.24 l 0.78666,-0.206666 v -5.526652 l -0.84,-0.233333 v -0.18 l 1.3,-0.346665 h 0.39333 l 0.1,0.08 -0.007,0.546666 -0.0333,1.079997 0.02,-0.133333 q 0.0467,-0.286666 0.2,-0.579999 0.15334,-0.293332 0.39333,-0.539998 0.24,-0.246666 0.54,-0.399999 0.3,-0.153333 0.63334,-0.153333 0.11999,0 0.19999,0.01333 0.08,0.01333 0.13334,0.03333 v 0.919998 q -0.0533,-0.02667 -0.12,-0.04 -0.06,-0.01333 -0.14667,-0.01333 -0.35333,0 -0.69333,0.08667 -0.34,0.08667 -0.63333,0.313333 -0.28667,0.226666 -0.49333,0.646665 v 4.426655 l 0.91999,0.206666 v 0.24 z m 6.99329,0.146666 q -0.92666,0 -1.59333,-0.406666 -0.66666,-0.413332 -1.02666,-1.166663 -0.36,-0.759998 -0.36,-1.806662 0,-0.893331 0.26,-1.57333 0.26667,-0.679998 0.7,-1.146663 0.43333,-0.466666 0.95333,-0.699999 0.52666,-0.239999 1.04666,-0.239999 1.11333,0 1.78,0.626665 0.66666,0.619998 0.68,1.813329 0.007,0.393332 -0.0133,0.613332 -0.02,0.213332 -0.0533,0.379999 h -4.26666 q 0,0.566665 0.1,1.126663 0.10667,0.559999 0.34,1.019998 0.23334,0.459999 0.62,0.739998 0.38667,0.273333 0.95333,0.273333 0.57333,0 1.08667,-0.206667 0.51333,-0.206666 0.80666,-0.453332 l 0.14,0.266666 q -0.24,0.233333 -0.58666,0.426666 -0.34,0.186666 -0.74667,0.299999 -0.4,0.113333 -0.82,0.113333 z m -1.88666,-3.89999 3.31333,-0.12 q 0.0267,-0.153333 0.0267,-0.286666 0.007,-0.139999 0.007,-0.279999 0,-1.006664 -0.34667,-1.559996 -0.34666,-0.559999 -1.09999,-0.559999 -0.50667,0 -0.87333,0.253333 -0.36,0.246666 -0.58667,0.659998 -0.22667,0.406666 -0.33333,0.906665 -0.10667,0.493332 -0.10667,0.986664 z m 7.88666,3.306658 v -9.019977 l -0.99334,-0.199999 v -0.24 h 1.54 q 0.4,0 0.68,-0.02667 0.28,-0.02667 0.54,-0.05333 0.26,-0.02667 0.59333,-0.02667 0.95333,0 1.58666,0.199999 0.64,0.193333 1.01333,0.533332 0.38,0.333333 0.54,0.759998 0.16667,0.426666 0.16667,0.886665 0,0.599998 -0.23333,1.106664 -0.22667,0.506665 -0.67334,0.853331 -0.44666,0.346666 -1.09333,0.473332 0.78,-0.02667 1.38,0.279999 0.60666,0.3 0.94666,0.833332 0.34667,0.526665 0.34667,1.186663 0,0.579999 -0.20667,1.113331 -0.2,0.533332 -0.66666,0.953331 -0.46667,0.419999 -1.25333,0.666665 -0.78,0.246666 -1.93333,0.246666 -0.18667,0 -0.52,-0.02 -0.33333,-0.02 -0.68,-0.04 -0.34666,-0.02 -0.58666,-0.02 h -1.49333 v -0.24 z m 1.05333,-4.879987 q 0.16666,0.0067 0.39333,0.01333 0.22666,0.0067 0.46666,0.0067 0.24,-0.0067 0.44667,-0.0067 0.21333,0 0.35333,0 0.62667,0 1.04,-0.266666 0.42,-0.266666 0.62666,-0.759998 0.21334,-0.499999 0.21334,-1.186664 0,-1.15333 -0.52667,-1.653329 -0.52666,-0.506665 -1.75333,-0.506665 -0.34666,0 -0.57333,0.02 -0.22666,0.02 -0.38666,0.04667 -0.15334,0.02 -0.29334,0.03333 z m -0.007,4.906654 q 0.18667,0.05333 0.41333,0.09333 0.22667,0.04 0.46667,0.06 0.24666,0.02 0.49333,0.02 1.12,0 1.70666,-0.339999 0.59333,-0.339999 0.81333,-0.913331 0.22,-0.573332 0.22,-1.266664 0,-1.033331 -0.58,-1.593329 -0.57333,-0.559999 -1.72666,-0.559999 -0.19333,0 -0.44,0 -0.24,0 -0.49333,0 -0.24667,0 -0.48,0.0067 -0.22666,0.0067 -0.38666,0.02 z m 5.79332,0.419999 v -0.24 l 0.78667,-0.206666 v -5.526652 l -0.84,-0.233333 v -0.18 l 1.30666,-0.346665 h 0.30667 l 0.17333,0.126666 v 6.159984 l 0.77333,0.206666 v 0.24 z m 1.28666,-7.846647 q -0.23333,0 -0.42666,-0.166666 -0.18667,-0.173333 -0.18667,-0.559999 0,-0.386666 0.22,-0.606665 0.22667,-0.226666 0.47333,-0.226666 h 0.0133 q 0.23333,0 0.42,0.166666 0.19333,0.166666 0.19333,0.559999 0,0.386665 -0.22667,0.613332 -0.22,0.219999 -0.46666,0.219999 z m 4.02665,10.966639 q -0.41333,0 -0.87333,-0.1 -0.45333,-0.09333 -0.84666,-0.299999 -0.39333,-0.2 -0.64,-0.533332 -0.24667,-0.326666 -0.24667,-0.793331 0,-0.399999 0.17334,-0.706665 0.18,-0.306666 0.49333,-0.506666 0.31333,-0.193332 0.72,-0.259999 -0.30667,-0.12 -0.51333,-0.359999 -0.20667,-0.239999 -0.20667,-0.666665 0,-0.339999 0.16667,-0.593332 0.17333,-0.259999 0.42666,-0.433332 0.26,-0.18 0.51333,-0.279999 -0.74666,-0.406666 -0.97999,-0.959998 -0.23334,-0.553332 -0.23334,-1.159997 0,-0.746665 0.37334,-1.279997 0.37999,-0.539998 0.97999,-0.826664 0.6,-0.286666 1.26,-0.286666 0.77333,0 1.17333,0.219999 0.40667,0.213333 0.57333,0.399999 0.16,-0.266666 0.52667,-0.439999 0.37333,-0.173333 0.63333,-0.173333 h 0.25333 l -0.007,0.819998 -1.26667,0.0067 q 0.12667,0.133333 0.23333,0.346666 0.10667,0.213332 0.17334,0.506665 0.0733,0.286666 0.0733,0.666665 0,0.726665 -0.37333,1.259997 -0.37333,0.526665 -0.96667,0.813331 -0.58666,0.286666 -1.25333,0.286666 -0.24666,0 -0.51333,-0.02667 -0.26,-0.03333 -0.47333,-0.06667 -0.13333,0.09333 -0.33333,0.299999 -0.2,0.2 -0.2,0.613332 0,0.406666 0.25333,0.566665 0.26,0.16 0.78,0.16 l 1.92666,0.0067 q 0.60667,0 1,0.179999 0.39333,0.18 0.58666,0.473332 0.19334,0.293333 0.19334,0.639999 0,0.599998 -0.24667,1.059997 -0.24,0.466665 -0.70667,0.779998 -0.45999,0.319999 -1.11999,0.479999 -0.65333,0.166666 -1.48667,0.166666 z m 0.14,-0.326666 q 0.8,0 1.34667,-0.253333 0.55333,-0.253332 0.83333,-0.679998 0.28666,-0.419999 0.28666,-0.913331 0,-0.246666 -0.08,-0.446665 -0.08,-0.193333 -0.30666,-0.313333 -0.22667,-0.12 -0.66667,-0.12 h -1.53333 q -0.36666,0 -0.63333,-0.01333 -0.26,-0.01333 -0.41333,-0.05333 -0.22667,0.146666 -0.40667,0.406665 -0.17333,0.266666 -0.17333,0.846665 0,0.526665 0.26,0.866664 0.26667,0.34 0.66667,0.506666 0.40666,0.166666 0.81999,0.166666 z m 0.21334,-5.339986 q 0.77333,0 1.19333,-0.533332 0.42,-0.533332 0.42,-1.486663 0,-0.613332 -0.18,-1.066664 -0.18,-0.459999 -0.5,-0.706665 -0.32,-0.253333 -0.74667,-0.253333 -0.51333,0 -0.87333,0.24 -0.35333,0.233332 -0.54,0.693331 -0.18666,0.453332 -0.18666,1.113331 0,0.593331 0.16,1.046664 0.16666,0.446665 0.48,0.699998 0.31999,0.253333 0.77333,0.253333 z m 6.69998,2.099994 v -9.019977 l -0.91333,-0.199999 v -0.24 h 2.84666 v 0.24 l -0.90667,0.199999 v 9.019977 l 0.90667,0.206666 v 0.24 h -2.84666 v -0.24 z m 5.02667,0.593332 q -0.61333,0 -1.09333,-0.219999 -0.47333,-0.22 -0.80667,-0.639999 -0.32666,-0.426665 -0.5,-1.03333 -0.17333,-0.606666 -0.17333,-1.379997 0,-1.099997 0.42667,-1.953328 0.43333,-0.859998 1.16666,-1.346664 0.73333,-0.493332 1.62666,-0.493332 0.51334,0 0.9,0.12 0.38667,0.12 0.56667,0.239999 v -3.83999 l -0.91334,-0.126666 v -0.18 l 1.46667,-0.213333 h 0.28 l 0.0933,0.08667 v 10.519973 h 0.74667 v 0.22 q -0.20667,0.06667 -0.48,0.133333 -0.26667,0.06667 -0.49334,0.06667 -0.36666,0 -0.53333,-0.126666 -0.16666,-0.133333 -0.16666,-0.426666 v -0.573332 q -0.1,0.173333 -0.37334,0.453333 -0.27333,0.279999 -0.70666,0.499998 -0.43333,0.213333 -1.03333,0.213333 z m 0.26666,-0.453332 q 0.44667,0 0.80667,-0.16 0.36,-0.166666 0.62666,-0.386665 0.26667,-0.22 0.41334,-0.386666 v -4.759988 q -0.14,-0.18 -0.48,-0.379999 -0.33334,-0.206666 -0.9,-0.206666 -0.71333,0 -1.20666,0.386666 -0.48667,0.379999 -0.74,1.13333 -0.24667,0.746665 -0.24667,1.839995 0,0.986665 0.22667,1.63333 0.22666,0.646665 0.62,0.966664 0.39333,0.319999 0.87999,0.319999 z m 6.99999,0.453332 q -0.92666,0 -1.59333,-0.406666 -0.66666,-0.413332 -1.02666,-1.166663 -0.36,-0.759998 -0.36,-1.806662 0,-0.893331 0.26,-1.57333 0.26667,-0.679998 0.7,-1.146663 0.43333,-0.466666 0.95333,-0.699999 0.52666,-0.239999 1.04666,-0.239999 1.11333,0 1.78,0.626665 0.66666,0.619998 0.68,1.813329 0.007,0.393332 -0.0133,0.613332 -0.02,0.213332 -0.0533,0.379999 h -4.26666 q 0,0.566665 0.1,1.126663 0.10667,0.559999 0.34,1.019998 0.23334,0.459999 0.62,0.739998 0.38667,0.273333 0.95333,0.273333 0.57333,0 1.08667,-0.206667 0.51333,-0.206666 0.80666,-0.453332 l 0.14,0.266666 q -0.24,0.233333 -0.58667,0.426666 -0.33999,0.186666 -0.74666,0.299999 -0.4,0.113333 -0.82,0.113333 z m -1.88666,-3.89999 3.31333,-0.12 q 0.0267,-0.153333 0.0267,-0.286666 0.007,-0.139999 0.007,-0.279999 0,-1.006664 -0.34667,-1.559996 -0.34666,-0.559999 -1.09999,-0.559999 -0.50667,0 -0.87334,0.253333 -0.35999,0.246666 -0.58666,0.659998 -0.22667,0.406666 -0.33333,0.906665 -0.10667,0.493332 -0.10667,0.986664 z m 6.55333,3.846657 q -0.42,0 -0.84,-0.18 -0.42,-0.179999 -0.70667,-0.559998 -0.28,-0.379999 -0.28,-0.979998 0,-0.606665 0.37334,-1.03333 0.37333,-0.433333 0.95999,-0.706665 0.59334,-0.273333 1.26,-0.399999 0.67333,-0.126667 1.26666,-0.126667 v -0.686665 q 0,-0.526665 -0.08,-0.919997 -0.08,-0.399999 -0.32666,-0.619999 -0.24,-0.226666 -0.74,-0.226666 -0.64667,0 -1.18666,0.173333 -0.54,0.166666 -0.97333,0.426666 l -0.18,-0.273333 q 0.25333,-0.193333 0.63333,-0.393332 0.38,-0.206666 0.86,-0.339999 0.47999,-0.14 1.03999,-0.14 0.72,0 1.13333,0.273333 0.42,0.266666 0.59333,0.786664 0.18,0.513332 0.18,1.25333 v 4.246656 h 0.70667 v 0.22 q -0.14,0.04667 -0.3,0.09333 -0.15333,0.04667 -0.33333,0.07333 -0.17334,0.03333 -0.38,0.03333 -0.3,0 -0.46667,-0.126666 -0.16,-0.133333 -0.16,-0.419999 v -0.679998 q -0.11333,0.213333 -0.39333,0.506665 -0.27333,0.293333 -0.69333,0.513332 -0.41333,0.213333 -0.96666,0.213333 z m 0.25999,-0.559999 q 0.58,0 0.98667,-0.239999 0.41333,-0.239999 0.78666,-0.646665 v -2.206661 q -0.73333,0 -1.38666,0.206666 -0.65333,0.199999 -1.06666,0.606665 -0.40667,0.399999 -0.40667,0.999998 0,0.379999 0.15333,0.673331 0.15334,0.286666 0.4,0.446666 0.25334,0.159999 0.53333,0.159999 z m 6.31998,0.599999 q -0.49333,0 -0.91333,-0.12 -0.42,-0.12 -0.74,-0.239999 -0.32,-0.126667 -0.52667,-0.14 v -1.553329 h 0.47334 l 0.33333,1.039997 q 0.0267,0.113333 0.24,0.279999 0.21333,0.166667 0.52666,0.3 0.32,0.126666 0.65333,0.126666 0.42667,0 0.76667,-0.126666 0.34666,-0.126667 0.54666,-0.393333 0.20667,-0.266666 0.20667,-0.673331 0,-0.333333 -0.2,-0.599999 -0.19333,-0.273332 -0.59333,-0.519999 -0.4,-0.253332 -1.01333,-0.519998 -0.61333,-0.266666 -1.00667,-0.579999 -0.39333,-0.313332 -0.58666,-0.673331 -0.18667,-0.366666 -0.18667,-0.779998 0,-0.626666 0.3,-1.039998 0.30667,-0.419999 0.8,-0.626665 0.49333,-0.213333 1.04666,-0.213333 0.53334,0 0.86667,0.08667 0.33333,0.08 0.54,0.173333 0.20666,0.09333 0.35333,0.126666 v 1.459996 h -0.4 l -0.34667,-1.01333 q -0.0533,-0.106667 -0.15999,-0.233333 -0.1,-0.126667 -0.31334,-0.213333 -0.20666,-0.09333 -0.58666,-0.09333 -0.28,0 -0.61333,0.106666 -0.32667,0.106667 -0.56667,0.359999 -0.24,0.253333 -0.24,0.693332 0,0.339999 0.18667,0.606665 0.18666,0.259999 0.50666,0.473332 0.32667,0.206666 0.72667,0.393333 0.42,0.193332 0.80666,0.386665 0.39333,0.193333 0.7,0.433333 0.30667,0.233332 0.48667,0.553331 0.18,0.313333 0.18,0.746665 0,0.606665 -0.28,1.059998 -0.27334,0.453332 -0.78,0.699998 -0.5,0.246666 -1.19333,0.246666 z m 5.93998,-0.579999 v -9.019977 l -0.99334,-0.199999 v -0.24 h 1.54 q 0.4,0 0.68,-0.02667 0.28,-0.02667 0.54,-0.05333 0.26,-0.02667 0.59333,-0.02667 0.95333,0 1.58666,0.199999 0.64,0.193333 1.01333,0.533332 0.38,0.333333 0.54,0.759998 0.16667,0.426666 0.16667,0.886665 0,0.599998 -0.23333,1.106664 -0.22667,0.506665 -0.67334,0.853331 -0.44666,0.346666 -1.09333,0.473332 0.78,-0.02667 1.38,0.279999 0.60666,0.3 0.94666,0.833332 0.34667,0.526665 0.34667,1.186663 0,0.579999 -0.20667,1.113331 -0.2,0.533332 -0.66666,0.953331 -0.46667,0.419999 -1.25333,0.666665 -0.78,0.246666 -1.93333,0.246666 -0.18667,0 -0.52,-0.02 -0.33333,-0.02 -0.68,-0.04 -0.34666,-0.02 -0.58666,-0.02 h -1.49333 v -0.24 z m 1.05333,-4.879987 q 0.16666,0.0067 0.39333,0.01333 0.22666,0.0067 0.46666,0.0067 0.24,-0.0067 0.44667,-0.0067 0.21333,0 0.35333,0 0.62667,0 1.04,-0.266666 0.42,-0.266666 0.62666,-0.759998 0.21334,-0.499999 0.21334,-1.186664 0,-1.15333 -0.52667,-1.653329 -0.52666,-0.506665 -1.75333,-0.506665 -0.34666,0 -0.57333,0.02 -0.22666,0.02 -0.38666,0.04667 -0.15334,0.02 -0.29334,0.03333 z m -0.007,4.906654 q 0.18667,0.05333 0.41333,0.09333 0.22667,0.04 0.46667,0.06 0.24666,0.02 0.49333,0.02 1.12,0 1.70666,-0.339999 0.59333,-0.339999 0.81333,-0.913331 0.22,-0.573332 0.22,-1.266664 0,-1.033331 -0.58,-1.593329 -0.57333,-0.559999 -1.72666,-0.559999 -0.19333,0 -0.44,0 -0.24,0 -0.49333,0 -0.24667,0 -0.48,0.0067 -0.22666,0.0067 -0.38666,0.02 z m 9.27329,0.566665 q -0.92666,0 -1.59333,-0.406666 -0.66666,-0.413332 -1.02666,-1.166663 -0.36,-0.759998 -0.36,-1.806662 0,-0.893331 0.26,-1.57333 0.26666,-0.679998 0.7,-1.146663 0.43333,-0.466666 0.95333,-0.699999 0.52666,-0.239999 1.04666,-0.239999 1.11333,0 1.78,0.626665 0.66666,0.619998 0.68,1.813329 0.007,0.393332 -0.0133,0.613332 -0.02,0.213332 -0.0533,0.379999 h -4.26666 q 0,0.566665 0.1,1.126663 0.10667,0.559999 0.34,1.019998 0.23333,0.459999 0.62,0.739998 0.38667,0.273333 0.95333,0.273333 0.57333,0 1.08666,-0.206667 0.51334,-0.206666 0.80667,-0.453332 l 0.14,0.266666 q -0.24,0.233333 -0.58667,0.426666 -0.34,0.186666 -0.74666,0.299999 -0.4,0.113333 -0.82,0.113333 z m -1.88666,-3.89999 3.31332,-0.12 q 0.0267,-0.153333 0.0267,-0.286666 0.007,-0.139999 0.007,-0.279999 0,-1.006664 -0.34667,-1.559996 -0.34666,-0.559999 -1.1,-0.559999 -0.50666,0 -0.87333,0.253333 -0.36,0.246666 -0.58666,0.659998 -0.22667,0.406666 -0.33333,0.906665 -0.10667,0.493332 -0.10667,0.986664 z m 8.0933,3.89999 q -0.91999,0 -1.57999,-0.426665 -0.66,-0.426666 -1.01333,-1.199997 -0.34667,-0.773332 -0.34667,-1.806663 0,-0.753331 0.24667,-1.406663 0.24666,-0.659998 0.7,-1.159997 0.45333,-0.506665 1.06666,-0.786664 0.61333,-0.286666 1.35333,-0.286666 0.35333,0 0.7,0.08667 0.34666,0.08667 0.61333,0.186666 0.27333,0.09333 0.39333,0.126667 l -0.0467,1.713329 h -0.50667 l -0.26667,-1.27333 q -0.0133,-0.06667 -0.11333,-0.186667 -0.0933,-0.119999 -0.33333,-0.219999 -0.24,-0.1 -0.69333,-0.1 -0.49333,0 -0.96667,0.373333 -0.46666,0.373332 -0.76666,1.079997 -0.3,0.699998 -0.3,1.693329 0,0.706665 0.12667,1.286663 0.13333,0.573332 0.38666,0.986664 0.26,0.413333 0.64,0.639999 0.38,0.219999 0.87333,0.219999 0.36667,0 0.71333,-0.08667 0.35333,-0.08667 0.64,-0.22 0.28667,-0.139999 0.46667,-0.273332 l 0.14,0.239999 q -0.22,0.22 -0.56667,0.406666 -0.34,0.179999 -0.74666,0.286666 -0.4,0.106666 -0.81334,0.106666 z m 2.74,-3.433325 q 0,-0.866664 0.26,-1.539996 0.26667,-0.679998 0.70667,-1.146663 0.44666,-0.466666 0.98666,-0.706665 0.54667,-0.246666 1.10667,-0.246666 1.05333,0 1.67333,0.493332 0.62666,0.486665 0.89333,1.266663 0.27333,0.779998 0.27333,1.659996 0,0.866665 -0.26667,1.546663 -0.26,0.679998 -0.69999,1.15333 -0.43334,0.466666 -0.97334,0.713332 -0.53999,0.239999 -1.09999,0.239999 -0.78667,0 -1.34,-0.286666 -0.54666,-0.286666 -0.88,-0.773331 -0.33333,-0.486666 -0.48666,-1.099997 -0.15334,-0.613332 -0.15334,-1.273331 z m 2.95333,3.099993 q 0.58667,0 1.00666,-0.359999 0.42,-0.366666 0.64667,-1.073331 0.22667,-0.706665 0.22667,-1.739996 0,-0.579998 -0.10667,-1.15333 -0.1,-0.573332 -0.32667,-1.039997 -0.22,-0.473333 -0.57333,-0.753332 -0.35333,-0.286666 -0.86,-0.286666 -0.58666,0 -1.01333,0.359999 -0.42666,0.353333 -0.66,1.059998 -0.22666,0.699998 -0.22666,1.739995 0,0.593332 0.10667,1.173331 0.10666,0.573331 0.33333,1.046664 0.22666,0.466665 0.58,0.746664 0.36,0.28 0.86666,0.28 z m 3.46667,0.186666 v -0.24 l 0.78666,-0.206666 v -5.526652 l -0.84,-0.233333 v -0.18 l 1.31333,-0.346665 h 0.37334 l 0.1,0.08 v 1.086664 q 0.22666,-0.286666 0.57333,-0.573332 0.35333,-0.293332 0.8,-0.486665 0.45333,-0.193333 0.97333,-0.193333 0.70666,0 1.11999,0.313333 0.42,0.313332 0.61334,0.939997 0.22666,-0.286666 0.57999,-0.573332 0.35334,-0.293332 0.8,-0.486665 0.44667,-0.193333 0.94667,-0.193333 0.59333,0 0.96666,0.206666 0.38,0.2 0.58,0.559999 0.20666,0.359999 0.28,0.846664 0.08,0.486666 0.08,1.053331 v 3.706657 l 0.77333,0.206666 v 0.24 h -2.53999 v -0.24 l 0.81999,-0.206666 v -3.65999 q 0,-0.606666 -0.08,-1.073331 -0.0733,-0.466666 -0.34,-0.733332 -0.25999,-0.266666 -0.81333,-0.266666 -0.44,0 -0.77999,0.08667 -0.33334,0.08667 -0.62667,0.259999 -0.28667,0.166666 -0.59333,0.426666 0.04,0.126666 0.0533,0.339999 0.0133,0.206666 0.0133,0.453332 0,0.24 0,0.459999 l -0.007,3.706657 0.77333,0.206666 v 0.24 h -2.53333 v -0.24 l 0.82,-0.206666 v -3.65999 q 0,-0.606666 -0.0733,-1.073331 -0.0667,-0.466666 -0.32,-0.733332 -0.25333,-0.266666 -0.8,-0.266666 -0.66,0 -1.11333,0.2 -0.45333,0.193333 -0.94666,0.606665 v 4.926654 l 0.77333,0.206666 v 0.24 z m 14.2533,0.146666 q -0.92667,0 -1.59333,-0.406666 -0.66667,-0.413332 -1.02667,-1.166663 -0.36,-0.759998 -0.36,-1.806662 0,-0.893331 0.26,-1.57333 0.26667,-0.679998 0.7,-1.146663 0.43333,-0.466666 0.95333,-0.699999 0.52667,-0.239999 1.04667,-0.239999 1.11333,0 1.77999,0.626665 0.66667,0.619998 0.68,1.813329 0.007,0.393332 -0.0133,0.613332 -0.02,0.213332 -0.0533,0.379999 h -4.26665 q 0,0.566665 0.1,1.126663 0.10666,0.559999 0.34,1.019998 0.23333,0.459999 0.61999,0.739998 0.38667,0.273333 0.95333,0.273333 0.57334,0 1.08667,-0.206667 0.51333,-0.206666 0.80666,-0.453332 l 0.14,0.266666 q -0.24,0.233333 -0.58666,0.426666 -0.34,0.186666 -0.74667,0.299999 -0.4,0.113333 -0.81999,0.113333 z m -1.88667,-3.89999 3.31333,-0.12 q 0.0267,-0.153333 0.0267,-0.286666 0.007,-0.139999 0.007,-0.279999 0,-1.006664 -0.34666,-1.559996 -0.34667,-0.559999 -1.1,-0.559999 -0.50667,0 -0.87333,0.253333 -0.36,0.246666 -0.58667,0.659998 -0.22666,0.406666 -0.33333,0.906665 -0.10667,0.493332 -0.10667,0.986664 z m 7.88665,3.306658 v -9.019977 l -0.99333,-0.199999 v -0.24 h 1.53999 q 0.4,0 0.68,-0.02667 0.28,-0.02667 0.54,-0.05333 0.26,-0.02667 0.59333,-0.02667 0.95333,0 1.58667,0.199999 0.63999,0.193333 1.01333,0.533332 0.37999,0.333333 0.53999,0.759998 0.16667,0.426666 0.16667,0.886665 0,0.599998 -0.23333,1.106664 -0.22667,0.506665 -0.67333,0.853331 -0.44667,0.346666 -1.09333,0.473332 0.77999,-0.02667 1.37999,0.279999 0.60667,0.3 0.94667,0.833332 0.34666,0.526665 0.34666,1.186663 0,0.579999 -0.20666,1.113331 -0.2,0.533332 -0.66667,0.953331 -0.46666,0.419999 -1.25333,0.666665 -0.78,0.246666 -1.93333,0.246666 -0.18666,0 -0.52,-0.02 -0.33333,-0.02 -0.67999,-0.04 -0.34667,-0.02 -0.58667,-0.02 h -1.49333 v -0.24 z m 1.05333,-4.879987 q 0.16667,0.0067 0.39333,0.01333 0.22667,0.0067 0.46667,0.0067 0.24,-0.0067 0.44666,-0.0067 0.21334,0 0.35333,0 0.62667,0 1.04,-0.266666 0.42,-0.266666 0.62667,-0.759998 0.21333,-0.499999 0.21333,-1.186664 0,-1.15333 -0.52667,-1.653329 -0.52666,-0.506665 -1.75332,-0.506665 -0.34667,0 -0.57334,0.02 -0.22666,0.02 -0.38666,0.04667 -0.15333,0.02 -0.29333,0.03333 z m -0.007,4.906654 q 0.18667,0.05333 0.41333,0.09333 0.22667,0.04 0.46667,0.06 0.24667,0.02 0.49333,0.02 1.12,0 1.70666,-0.339999 0.59334,-0.339999 0.81334,-0.913331 0.22,-0.573332 0.22,-1.266664 0,-1.033331 -0.58,-1.593329 -0.57334,-0.559999 -1.72667,-0.559999 -0.19333,0 -0.43999,0 -0.24,0 -0.49334,0 -0.24666,0 -0.48,0.0067 -0.22666,0.0067 -0.38666,0.02 z m 5.79333,0.419999 v -0.24 l 0.78666,-0.206666 v -5.526652 l -0.84,-0.233333 v -0.18 l 1.30667,-0.346665 h 0.30666 l 0.17334,0.126666 v 6.159984 l 0.77333,0.206666 v 0.24 z m 1.28666,-7.846647 q -0.23333,0 -0.42666,-0.166666 -0.18667,-0.173333 -0.18667,-0.559999 0,-0.386666 0.22,-0.606665 0.22667,-0.226666 0.47333,-0.226666 h 0.0133 q 0.23334,0 0.42,0.166666 0.19334,0.166666 0.19334,0.559999 0,0.386665 -0.22667,0.613332 -0.22,0.219999 -0.46667,0.219999 z m 4.02665,10.966639 q -0.41333,0 -0.87333,-0.1 -0.45333,-0.09333 -0.84666,-0.299999 -0.39334,-0.2 -0.64,-0.533332 -0.24667,-0.326666 -0.24667,-0.793331 0,-0.399999 0.17333,-0.706665 0.18,-0.306666 0.49334,-0.506666 0.31333,-0.193332 0.71999,-0.259999 -0.30666,-0.12 -0.51333,-0.359999 -0.20666,-0.239999 -0.20666,-0.666665 0,-0.339999 0.16666,-0.593332 0.17334,-0.259999 0.42667,-0.433332 0.26,-0.18 0.51333,-0.279999 -0.74666,-0.406666 -0.98,-0.959998 -0.23333,-0.553332 -0.23333,-1.159997 0,-0.746665 0.37333,-1.279997 0.38,-0.539998 0.98,-0.826664 0.6,-0.286666 1.26,-0.286666 0.77333,0 1.17333,0.219999 0.40666,0.213333 0.57333,0.399999 0.16,-0.266666 0.52666,-0.439999 0.37334,-0.173333 0.63334,-0.173333 h 0.25333 l -0.007,0.819998 -1.26666,0.0067 q 0.12666,0.133333 0.23333,0.346666 0.10667,0.213332 0.17333,0.506665 0.0733,0.286666 0.0733,0.666665 0,0.726665 -0.37334,1.259997 -0.37333,0.526665 -0.96666,0.813331 -0.58666,0.286666 -1.25333,0.286666 -0.24667,0 -0.51333,-0.02667 -0.26,-0.03333 -0.47333,-0.06667 -0.13334,0.09333 -0.33334,0.299999 -0.2,0.2 -0.2,0.613332 0,0.406666 0.25334,0.566665 0.26,0.16 0.77999,0.16 l 1.92667,0.0067 q 0.60666,0 0.99999,0.179999 0.39334,0.18 0.58667,0.473332 0.19333,0.293333 0.19333,0.639999 0,0.599998 -0.24666,1.059997 -0.24,0.466665 -0.70667,0.779998 -0.46,0.319999 -1.12,0.479999 -0.65333,0.166666 -1.48666,0.166666 z m 0.14,-0.326666 q 0.8,0 1.34666,-0.253333 0.55334,-0.253332 0.83334,-0.679998 0.28666,-0.419999 0.28666,-0.913331 0,-0.246666 -0.08,-0.446665 -0.08,-0.193333 -0.30666,-0.313333 -0.22667,-0.12 -0.66667,-0.12 h -1.53333 q -0.36666,0 -0.63333,-0.01333 -0.26,-0.01333 -0.41333,-0.05333 -0.22667,0.146666 -0.40667,0.406665 -0.17333,0.266666 -0.17333,0.846665 0,0.526665 0.26,0.866664 0.26666,0.34 0.66666,0.506666 0.40667,0.166666 0.82,0.166666 z m 0.21333,-5.339986 q 0.77333,0 1.19333,-0.533332 0.42,-0.533332 0.42,-1.486663 0,-0.613332 -0.18,-1.066664 -0.18,-0.459999 -0.5,-0.706665 -0.31999,-0.253333 -0.74666,-0.253333 -0.51333,0 -0.87333,0.24 -0.35333,0.233332 -0.54,0.693331 -0.18667,0.453332 -0.18667,1.113331 0,0.593331 0.16,1.046664 0.16667,0.446665 0.48,0.699998 0.32,0.253333 0.77333,0.253333 z m 6.23998,5.666652 q -0.41333,0 -0.87333,-0.1 -0.45333,-0.09333 -0.84667,-0.299999 -0.39333,-0.2 -0.64,-0.533332 -0.24666,-0.326666 -0.24666,-0.793331 0,-0.399999 0.17333,-0.706665 0.18,-0.306666 0.49333,-0.506666 0.31334,-0.193332 0.72,-0.259999 -0.30666,-0.12 -0.51333,-0.359999 -0.20667,-0.239999 -0.20667,-0.666665 0,-0.339999 0.16667,-0.593332 0.17333,-0.259999 0.42667,-0.433332 0.25999,-0.18 0.51333,-0.279999 -0.74667,-0.406666 -0.98,-0.959998 -0.23333,-0.553332 -0.23333,-1.159997 0,-0.746665 0.37333,-1.279997 0.38,-0.539998 0.98,-0.826664 0.6,-0.286666 1.25999,-0.286666 0.77334,0 1.17333,0.219999 0.40667,0.213333 0.57334,0.399999 0.16,-0.266666 0.52666,-0.439999 0.37333,-0.173333 0.63333,-0.173333 h 0.25334 l -0.007,0.819998 -1.26666,0.0067 q 0.12666,0.133333 0.23333,0.346666 0.10666,0.213332 0.17333,0.506665 0.0733,0.286666 0.0733,0.666665 0,0.726665 -0.37333,1.259997 -0.37333,0.526665 -0.96666,0.813331 -0.58667,0.286666 -1.25333,0.286666 -0.24667,0 -0.51333,-0.02667 -0.26,-0.03333 -0.47334,-0.06667 -0.13333,0.09333 -0.33333,0.299999 -0.2,0.2 -0.2,0.613332 0,0.406666 0.25333,0.566665 0.26,0.16 0.78,0.16 l 1.92666,0.0067 q 0.60667,0 1,0.179999 0.39333,0.18 0.58667,0.473332 0.19333,0.293333 0.19333,0.639999 0,0.599998 -0.24667,1.059997 -0.24,0.466665 -0.70666,0.779998 -0.46,0.319999 -1.12,0.479999 -0.65333,0.166666 -1.48666,0.166666 z m 0.14,-0.326666 q 0.8,0 1.34666,-0.253333 0.55333,-0.253332 0.83333,-0.679998 0.28667,-0.419999 0.28667,-0.913331 0,-0.246666 -0.08,-0.446665 -0.08,-0.193333 -0.30667,-0.313333 -0.22666,-0.12 -0.66666,-0.12 h -1.53333 q -0.36667,0 -0.63333,-0.01333 -0.26,-0.01333 -0.41334,-0.05333 -0.22666,0.146666 -0.40666,0.406665 -0.17333,0.266666 -0.17333,0.846665 0,0.526665 0.26,0.866664 0.26666,0.34 0.66666,0.506666 0.40667,0.166666 0.82,0.166666 z m 0.21333,-5.339986 q 0.77333,0 1.19333,-0.533332 0.42,-0.533332 0.42,-1.486663 0,-0.613332 -0.18,-1.066664 -0.18,-0.459999 -0.5,-0.706665 -0.32,-0.253333 -0.74666,-0.253333 -0.51333,0 -0.87333,0.24 -0.35334,0.233332 -0.54,0.693331 -0.18667,0.453332 -0.18667,1.113331 0,0.593331 0.16,1.046664 0.16667,0.446665 0.48,0.699998 0.32,0.253333 0.77333,0.253333 z m 6.62665,2.693326 q -0.92666,0 -1.59333,-0.406666 -0.66666,-0.413332 -1.02666,-1.166663 -0.36,-0.759998 -0.36,-1.806662 0,-0.893331 0.26,-1.57333 0.26667,-0.679998 0.7,-1.146663 0.43333,-0.466666 0.95333,-0.699999 0.52666,-0.239999 1.04666,-0.239999 1.11333,0 1.78,0.626665 0.66666,0.619998 0.68,1.813329 0.007,0.393332 -0.0133,0.613332 -0.02,0.213332 -0.0533,0.379999 h -4.26666 q 0,0.566665 0.1,1.126663 0.10667,0.559999 0.34,1.019998 0.23334,0.459999 0.62,0.739998 0.38667,0.273333 0.95333,0.273333 0.57333,0 1.08667,-0.206667 0.51333,-0.206666 0.80666,-0.453332 l 0.14,0.266666 q -0.24,0.233333 -0.58666,0.426666 -0.34,0.186666 -0.74667,0.299999 -0.4,0.113333 -0.82,0.113333 z m -1.88666,-3.89999 3.31333,-0.12 q 0.0267,-0.153333 0.0267,-0.286666 0.007,-0.139999 0.007,-0.279999 0,-1.006664 -0.34667,-1.559996 -0.34666,-0.559999 -1.09999,-0.559999 -0.50667,0 -0.87333,0.253333 -0.36,0.246666 -0.58667,0.659998 -0.22667,0.406666 -0.33333,0.906665 -0.10667,0.493332 -0.10667,0.986664 z m 4.81999,3.753324 v -0.24 l 0.78667,-0.206666 v -5.526652 l -0.84,-0.233333 v -0.18 l 1.3,-0.346665 h 0.39333 l 0.1,0.08 -0.007,0.546666 -0.0333,1.079997 0.02,-0.133333 q 0.0467,-0.286666 0.2,-0.579999 0.15333,-0.293332 0.39333,-0.539998 0.24,-0.246666 0.54,-0.399999 0.3,-0.153333 0.63333,-0.153333 0.12,0 0.2,0.01333 0.08,0.01333 0.13333,0.03333 v 0.919998 q -0.0533,-0.02667 -0.12,-0.04 -0.06,-0.01333 -0.14666,-0.01333 -0.35333,0 -0.69333,0.08667 -0.34,0.08667 -0.63334,0.313333 -0.28666,0.226666 -0.49333,0.646665 v 4.426655 l 0.92,0.206666 v 0.24 z m 6.77999,-0.446666 3.24665,-9.553309 h 0.97333 l 2.98,9.539976 0.86666,0.219999 v 0.24 h -2.89999 v -0.24 l 0.90666,-0.219999 -0.79999,-2.60666 h -3.79333 l -0.74666,2.60666 0.88666,0.219999 v 0.24 h -2.44666 v -0.24 z m 5.13332,-3.059992 -1.43333,-4.833321 -0.25334,-0.893331 -0.29333,0.893331 -1.54,4.833321 z m 2.89332,6.46665 v -0.239999 l 0.79333,-0.206666 v -8.486645 l -0.84667,-0.233333 v -0.18 l 1.33333,-0.346665 h 0.31334 l 0.11333,0.08667 v 0.886664 q 0.11333,-0.179999 0.38666,-0.446665 0.28,-0.273333 0.71334,-0.479999 0.44,-0.213333 1.02666,-0.213333 0.82,0 1.39333,0.386666 0.58,0.386666 0.88,1.13333 0.30666,0.739999 0.30666,1.813329 0,0.793332 -0.24666,1.47333 -0.24667,0.673331 -0.69333,1.179997 -0.44,0.499999 -1.02667,0.779998 -0.58,0.279999 -1.25333,0.279999 -0.50666,0 -0.92,-0.09333 -0.40666,-0.08667 -0.57999,-0.173333 l 0.0267,1.19333 v 1.446663 l 1.08667,0.2 v 0.239999 z m 3.10666,-3.146658 q 0.71999,0 1.20666,-0.379999 0.48666,-0.386666 0.73333,-1.133331 0.25333,-0.753331 0.25333,-1.839995 0,-0.746665 -0.12666,-1.29333 -0.12667,-0.546666 -0.36,-0.899998 -0.23333,-0.359999 -0.54667,-0.533332 -0.31333,-0.18 -0.68666,-0.18 -0.44,0 -0.80667,0.16 -0.36666,0.16 -0.63333,0.373332 -0.26666,0.213333 -0.42,0.379999 v 4.759988 q 0.14,0.166667 0.48,0.38 0.34,0.206666 0.90667,0.206666 z m 3.97332,3.146658 v -0.239999 l 0.79333,-0.206666 v -8.486645 l -0.84666,-0.233333 v -0.18 l 1.33333,-0.346665 h 0.31333 l 0.11334,0.08667 v 0.886664 q 0.11333,-0.179999 0.38666,-0.446665 0.28,-0.273333 0.71333,-0.479999 0.44,-0.213333 1.02667,-0.213333 0.81999,0 1.39333,0.386666 0.58,0.386666 0.87999,1.13333 0.30667,0.739999 0.30667,1.813329 0,0.793332 -0.24667,1.47333 -0.24666,0.673331 -0.69333,1.179997 -0.44,0.499999 -1.02666,0.779998 -0.58,0.279999 -1.25333,0.279999 -0.50667,0 -0.92,-0.09333 -0.40666,-0.08667 -0.58,-0.173333 l 0.0267,1.19333 v 1.446663 l 1.08666,0.2 v 0.239999 z m 3.10666,-3.146658 q 0.72,0 1.20667,-0.379999 0.48666,-0.386666 0.73333,-1.133331 0.25333,-0.753331 0.25333,-1.839995 0,-0.746665 -0.12667,-1.29333 -0.12666,-0.546666 -0.36,-0.899998 -0.23333,-0.359999 -0.54666,-0.533332 -0.31333,-0.18 -0.68667,-0.18 -0.43999,0 -0.80666,0.16 -0.36667,0.16 -0.63333,0.373332 -0.26667,0.213333 -0.42,0.379999 v 4.759988 q 0.14,0.166667 0.48,0.38 0.34,0.206666 0.90666,0.206666 z m 6.23333,0.319999 q -0.49333,0 -0.91333,-0.12 -0.42,-0.12 -0.74,-0.239999 -0.32,-0.126667 -0.52666,-0.14 v -1.553329 h 0.47333 l 0.33333,1.039997 q 0.0267,0.113333 0.24,0.279999 0.21333,0.166667 0.52667,0.3 0.31999,0.126666 0.65333,0.126666 0.42666,0 0.76666,-0.126666 0.34667,-0.126667 0.54667,-0.393333 0.20666,-0.266666 0.20666,-0.673331 0,-0.333333 -0.2,-0.599999 -0.19333,-0.273332 -0.59333,-0.519999 -0.4,-0.253332 -1.01333,-0.519998 -0.61333,-0.266666 -1.00666,-0.579999 -0.39334,-0.313332 -0.58667,-0.673331 -0.18666,-0.366666 -0.18666,-0.779998 0,-0.626666 0.29999,-1.039998 0.30667,-0.419999 0.8,-0.626665 0.49333,-0.213333 1.04667,-0.213333 0.53333,0 0.86666,0.08667 0.33333,0.08 0.54,0.173333 0.20667,0.09333 0.35333,0.126666 v 1.459996 h -0.4 l -0.34666,-1.01333 q -0.0533,-0.106667 -0.16,-0.233333 -0.1,-0.126667 -0.31333,-0.213333 -0.20667,-0.09333 -0.58667,-0.09333 -0.28,0 -0.61333,0.106666 -0.32667,0.106667 -0.56667,0.359999 -0.24,0.253333 -0.24,0.693332 0,0.339999 0.18667,0.606665 0.18667,0.259999 0.50667,0.473332 0.32666,0.206666 0.72666,0.393333 0.42,0.193332 0.80666,0.386665 0.39334,0.193333 0.7,0.433333 0.30667,0.233332 0.48667,0.553331 0.18,0.313333 0.18,0.746665 0,0.606665 -0.28,1.059998 -0.27333,0.453332 -0.78,0.699998 -0.5,0.246666 -1.19333,0.246666 z"
     id="text7"
     aria-label="Where Big Ideas Become Bigger Apps" />
  <path
     style="font-weight:200;font-size:32px;line-height:0;font-family:Dosis;-inkscape-font-specification:'Dosis Ultra-Light';letter-spacing:0.8px;fill:#03ffff;stroke:#ffffff"
     d="m 121.63866,37.838915 q -1.472,0 -2.656,-0.704 -1.152,-0.736 -1.696,-1.728 v 1.664 q 0,0.224 -0.16,0.416 -0.16,0.16 -0.416,0.16 -0.224,0 -0.384,-0.16 -0.16,-0.192 -0.16,-0.416 v -23.456 q 0,-0.256 0.16,-0.384 0.16,-0.16 0.384,-0.16 0.256,0 0.416,0.16 0.16,0.128 0.16,0.384 v 11.168 q 0.544,-0.928 1.6,-1.664 1.088,-0.768 2.688,-0.768 1.568,0 2.88,0.8 1.312,0.768 2.08,2.08 0.8,1.28 0.8,2.88 v 3.904 q 0,1.504 -0.8,2.848 -0.768,1.344 -2.08,2.176 -1.28,0.8 -2.816,0.8 z m 0.064,-1.12 q 1.216,0 2.24,-0.672 1.024,-0.672 1.632,-1.76 0.64,-1.088 0.64,-2.272 v -3.904 q 0,-1.184 -0.64,-2.24 -0.608,-1.056 -1.632,-1.728 -1.024,-0.672 -2.272,-0.672 -1.088,0 -2.112,0.576 -0.992,0.544 -1.632,1.568 -0.64,1.024 -0.64,2.496 v 5.088 q 0,0.544 0.576,1.376 0.576,0.832 1.568,1.504 1.024,0.64 2.272,0.64 z m 10.78401,-19.168 q -0.416,0 -0.736,-0.288 -0.288,-0.32 -0.288,-0.736 0,-0.416 0.288,-0.704 0.32,-0.288 0.736,-0.288 0.416,0 0.704,0.288 0.288,0.288 0.288,0.704 0,0.416 -0.288,0.736 -0.288,0.288 -0.704,0.288 z m -0.032,20.096 q -0.224,0 -0.384,-0.16 -0.16,-0.192 -0.16,-0.416 v -13.984 q 0,-0.256 0.16,-0.384 0.16,-0.16 0.384,-0.16 0.256,0 0.416,0.16 0.16,0.128 0.16,0.384 v 13.984 q 0,0.224 -0.16,0.416 -0.16,0.16 -0.416,0.16 z m 10.78398,7.584 q -1.856,0 -3.264,-0.512 -1.376,-0.512 -2.176,-1.44 -0.768,-0.928 -0.768,-2.176 0,-1.472 0.896,-2.336 0.928,-0.832 2.016,-1.216 -0.864,-0.256 -1.408,-0.736 -0.544,-0.512 -0.544,-1.536 0,-0.896 0.416,-1.376 0.448,-0.512 1.152,-0.832 -0.8,-0.704 -1.248,-1.728 -0.416,-1.056 -0.416,-2.304 v -1.44 q 0,-1.536 0.64,-2.72 0.64,-1.184 1.792,-1.856 1.184,-0.672 2.72,-0.672 1.184,0 2.144,0.416 0.96,0.384 1.664,1.12 0.448,-0.832 1.12,-1.376 0.672,-0.576 1.28,-0.576 0.352,0 0.512,0.192 0.16,0.192 0.16,0.448 0,0.288 -0.192,0.448 -0.16,0.16 -0.384,0.16 -0.416,0 -0.96,0.288 -0.512,0.288 -0.96,1.184 0.416,0.576 0.608,1.344 0.192,0.768 0.192,1.6 v 1.44 q 0,1.504 -0.672,2.72 -0.64,1.216 -1.824,1.92 -1.184,0.672 -2.72,0.672 -1.472,0 -2.624,-0.672 -0.48,0.224 -0.896,0.576 -0.384,0.32 -0.384,0.96 0,0.8 0.736,1.152 0.736,0.352 1.888,0.48 1.152,0.128 2.432,0.256 1.28,0.128 2.432,0.48 1.152,0.352 1.888,1.12 0.736,0.768 0.736,2.208 0,1.376 -0.736,2.336 -0.736,0.96 -2.08,1.472 -1.312,0.512 -3.168,0.512 z m 0,-1.024 q 2.368,0 3.616,-0.896 1.248,-0.896 1.248,-2.368 0,-1.152 -0.736,-1.76 -0.704,-0.576 -1.792,-0.832 -1.088,-0.224 -2.208,-0.32 -1.088,-0.064 -1.856,-0.16 -1.28,0.352 -2.336,1.056 -1.024,0.736 -1.024,2.08 0,1.408 1.312,2.304 1.344,0.896 3.776,0.896 z m -0.16,-10.976 q 1.888,0 2.944,-1.184 1.088,-1.216 1.088,-3.008 v -1.44 q 0,-1.76 -1.088,-2.944 -1.056,-1.184 -2.976,-1.184 -1.92,0 -2.976,1.184 -1.056,1.184 -1.056,2.944 v 1.408 q 0,1.792 1.056,3.008 1.088,1.216 3.008,1.216 z m 20.768,4.608 q -1.856,0 -3.168,-1.024 -1.28,-1.056 -1.28,-3.2 0,-1.696 0.928,-2.592 0.96,-0.928 2.624,-1.28 1.696,-0.352 3.904,-0.352 h 1.792 v -0.896 q 0,-1.216 -0.416,-2.368 -0.416,-1.152 -1.344,-1.888 -0.928,-0.768 -2.464,-0.768 -0.992,0 -1.664,0.224 -0.672,0.192 -1.088,0.416 -0.384,0.224 -0.576,0.224 -0.256,0 -0.416,-0.224 -0.16,-0.256 -0.16,-0.416 0,-0.32 0.576,-0.608 0.608,-0.32 1.504,-0.512 0.928,-0.224 1.888,-0.224 1.984,0 3.136,0.896 1.152,0.864 1.632,2.272 0.512,1.376 0.512,2.976 v 8.576 q 0,0.224 -0.16,0.416 -0.128,0.16 -0.384,0.16 -0.224,0 -0.416,-0.16 -0.16,-0.192 -0.16,-0.416 v -1.664 q -0.8,0.928 -2.016,1.696 -1.184,0.736 -2.784,0.736 z m -0.032,-1.12 q 1.216,0 2.304,-0.576 1.12,-0.608 1.824,-1.44 0.704,-0.832 0.704,-1.504 v -2.688 h -1.76 q -1.632,0 -3.104,0.192 -1.44,0.192 -2.368,0.864 -0.896,0.64 -0.896,2.048 0,1.6 0.96,2.368 0.96,0.736 2.336,0.736 z m 11.55201,8.512 q -0.224,0 -0.384,-0.192 -0.16,-0.16 -0.16,-0.384 v -21.568 q 0,-0.256 0.16,-0.384 0.16,-0.16 0.384,-0.16 0.256,0 0.416,0.16 0.16,0.128 0.16,0.384 v 1.696 q 0.544,-0.928 1.6,-1.664 1.088,-0.768 2.688,-0.768 1.568,0 2.88,0.8 1.312,0.768 2.08,2.08 0.8,1.28 0.8,2.88 v 3.904 q 0,1.504 -0.8,2.848 -0.768,1.344 -2.08,2.176 -1.28,0.8 -2.816,0.8 -1.472,0 -2.656,-0.704 -1.152,-0.736 -1.696,-1.728 v 9.248 q 0,0.224 -0.16,0.384 -0.16,0.192 -0.416,0.192 z m 4.992,-8.512 q 1.216,0 2.24,-0.672 1.024,-0.672 1.632,-1.76 0.64,-1.088 0.64,-2.272 v -3.904 q 0,-1.184 -0.64,-2.24 -0.608,-1.056 -1.632,-1.728 -1.024,-0.672 -2.272,-0.672 -1.088,0 -2.112,0.576 -0.992,0.544 -1.632,1.568 -0.64,1.024 -0.64,2.496 v 5.088 q 0,0.544 0.576,1.376 0.576,0.832 1.568,1.504 1.024,0.64 2.272,0.64 z m 10.78402,8.512 q -0.224,0 -0.384,-0.192 -0.16,-0.16 -0.16,-0.384 v -21.568 q 0,-0.256 0.16,-0.384 0.16,-0.16 0.384,-0.16 0.256,0 0.416,0.16 0.16,0.128 0.16,0.384 v 1.696 q 0.544,-0.928 1.6,-1.664 1.088,-0.768 2.688,-0.768 1.568,0 2.88,0.8 1.312,0.768 2.08,2.08 0.8,1.28 0.8,2.88 v 3.904 q 0,1.504 -0.8,2.848 -0.768,1.344 -2.08,2.176 -1.28,0.8 -2.816,0.8 -1.472,0 -2.656,-0.704 -1.152,-0.736 -1.696,-1.728 v 9.248 q 0,0.224 -0.16,0.384 -0.16,0.192 -0.416,0.192 z m 4.992,-8.512 q 1.216,0 2.24,-0.672 1.024,-0.672 1.632,-1.76 0.64,-1.088 0.64,-2.272 v -3.904 q 0,-1.184 -0.64,-2.24 -0.608,-1.056 -1.632,-1.728 -1.024,-0.672 -2.272,-0.672 -1.088,0 -2.112,0.576 -0.992,0.544 -1.632,1.568 -0.64,1.024 -0.64,2.496 v 5.088 q 0,0.544 0.576,1.376 0.576,0.832 1.568,1.504 1.024,0.64 2.272,0.64 z m 17.95203,0.928 q -0.224,0 -0.384,-0.16 -0.128,-0.16 -0.128,-0.384 v -18.336 q 0,-1.536 0.768,-2.816 0.8,-1.312 2.08,-2.08 1.312,-0.8 2.848,-0.8 h 0.32 q 0.256,0 0.416,0.16 0.16,0.16 0.16,0.416 0,0.224 -0.16,0.384 -0.16,0.16 -0.416,0.16 h -0.32 q -1.28,0 -2.336,0.672 -1.024,0.64 -1.632,1.696 -0.576,1.024 -0.608,2.208 v 3.776 h 4.896 q 0.256,0 0.416,0.16 0.16,0.16 0.16,0.384 0,0.224 -0.16,0.416 -0.16,0.16 -0.416,0.16 h -4.896 v 13.44 q 0,0.224 -0.192,0.384 -0.16,0.16 -0.416,0.16 z m 12.19201,0.192 q -1.856,0 -3.168,-1.024 -1.28,-1.056 -1.28,-3.2 0,-1.696 0.928,-2.592 0.96,-0.928 2.624,-1.28 1.696,-0.352 3.904,-0.352 h 1.792 v -0.896 q 0,-1.216 -0.416,-2.368 -0.416,-1.152 -1.344,-1.888 -0.928,-0.768 -2.464,-0.768 -0.992,0 -1.664,0.224 -0.672,0.192 -1.088,0.416 -0.384,0.224 -0.576,0.224 -0.256,0 -0.416,-0.224 -0.16,-0.256 -0.16,-0.416 0,-0.32 0.576,-0.608 0.608,-0.32 1.504,-0.512 0.928,-0.224 1.888,-0.224 1.984,0 3.136,0.896 1.152,0.864 1.632,2.272 0.512,1.376 0.512,2.976 v 8.576 q 0,0.224 -0.16,0.416 -0.128,0.16 -0.384,0.16 -0.224,0 -0.416,-0.16 -0.16,-0.192 -0.16,-0.416 v -1.664 q -0.8,0.928 -2.016,1.696 -1.184,0.736 -2.784,0.736 z m -0.032,-1.12 q 1.216,0 2.304,-0.576 1.12,-0.608 1.824,-1.44 0.704,-0.832 0.704,-1.504 v -2.688 h -1.76 q -1.632,0 -3.104,0.192 -1.44,0.192 -2.368,0.864 -0.896,0.64 -0.896,2.048 0,1.6 0.96,2.368 0.96,0.736 2.336,0.736 z m 16.32001,1.12 q -1.984,0 -3.296,-0.768 -1.28,-0.768 -1.92,-2.08 -0.64,-1.312 -0.64,-2.976 v -3.84 q 0,-1.632 0.608,-2.944 0.64,-1.344 1.952,-2.112 1.312,-0.768 3.296,-0.768 1.28,0 2.208,0.352 0.96,0.32 1.472,0.768 0.512,0.416 0.512,0.768 0,0.128 -0.096,0.256 -0.064,0.128 -0.192,0.224 -0.128,0.064 -0.288,0.064 -0.256,0 -0.64,-0.32 -0.352,-0.352 -1.024,-0.672 -0.672,-0.32 -1.952,-0.32 -2.304,0 -3.52,1.28 -1.216,1.248 -1.216,3.424 v 3.84 q 0,2.176 1.216,3.456 1.216,1.248 3.552,1.248 1.344,0 2.048,-0.32 0.736,-0.352 1.088,-0.672 0.384,-0.32 0.672,-0.32 0.16,0 0.256,0.096 0.128,0.064 0.192,0.192 0.096,0.096 0.096,0.256 0,0.32 -0.544,0.768 -0.512,0.448 -1.504,0.8 -0.96,0.32 -2.336,0.32 z m 12.92802,-0.192 q -2.272,0 -3.488,-1.056 -1.184,-1.056 -1.184,-3.392 v -17.504 q 0,-0.256 0.16,-0.384 0.192,-0.16 0.384,-0.16 0.224,0 0.384,0.16 0.192,0.128 0.192,0.384 v 6.848 h 4.32 q 0.224,0 0.384,0.16 0.16,0.16 0.16,0.416 0,0.224 -0.16,0.384 -0.16,0.16 -0.384,0.16 h -4.32 v 9.536 q 0,1.824 0.8,2.592 0.8,0.736 2.752,0.736 h 0.736 q 0.224,0 0.384,0.16 0.16,0.128 0.16,0.384 0,0.224 -0.16,0.416 -0.16,0.16 -0.384,0.16 z m 9.63199,0.192 q -1.504,0 -2.816,-0.8 -1.28,-0.832 -2.08,-2.144 -0.768,-1.344 -0.768,-2.88 v -3.904 q 0,-1.536 0.768,-2.848 0.768,-1.312 2.048,-2.112 1.312,-0.8 2.848,-0.8 1.536,0 2.816,0.8 1.312,0.768 2.08,2.08 0.8,1.28 0.8,2.88 v 3.904 q 0,1.504 -0.8,2.848 -0.768,1.344 -2.08,2.176 -1.28,0.8 -2.816,0.8 z m 0,-1.12 q 1.28,0 2.304,-0.672 1.024,-0.672 1.632,-1.76 0.64,-1.088 0.64,-2.272 v -3.904 q 0,-1.184 -0.608,-2.24 -0.608,-1.056 -1.664,-1.728 -1.024,-0.672 -2.304,-0.672 -1.28,0 -2.304,0.672 -1.024,0.672 -1.632,1.728 -0.608,1.056 -0.608,2.24 v 3.904 q 0,1.184 0.608,2.272 0.608,1.088 1.632,1.76 1.056,0.672 2.304,0.672 z m 10.81598,0.928 q -0.224,0 -0.384,-0.16 -0.16,-0.192 -0.16,-0.416 v -13.984 q 0,-0.256 0.16,-0.384 0.16,-0.16 0.384,-0.16 0.256,0 0.416,0.16 0.16,0.128 0.16,0.384 v 1.696 q 0.384,-0.64 0.992,-1.184 0.608,-0.544 1.472,-0.896 0.864,-0.352 1.984,-0.352 h 1.184 q 0.224,0 0.384,0.16 0.16,0.16 0.16,0.416 0,0.224 -0.16,0.384 -0.16,0.16 -0.384,0.16 h -1.184 q -1.12,0 -2.144,0.576 -1.024,0.544 -1.664,1.568 -0.64,1.024 -0.64,2.496 v 8.96 q 0,0.224 -0.16,0.416 -0.16,0.16 -0.416,0.16 z m 9.08803,7.584 q -0.224,0 -0.384,-0.16 -0.16,-0.16 -0.16,-0.384 0,-0.224 0.096,-0.416 0.128,-0.16 0.384,-0.16 0.864,0 1.536,-0.64 0.704,-0.608 1.248,-1.664 0.576,-1.024 1.024,-2.24 0.448,-1.184 0.864,-2.336 l -5.12,-14.144 q -0.064,-0.128 -0.064,-0.192 0,-0.16 0.064,-0.256 0.096,-0.128 0.224,-0.192 0.16,-0.096 0.32,-0.096 0.16,0 0.32,0.096 0.16,0.096 0.192,0.256 l 4.64,12.8 4.608,-12.8 q 0.064,-0.16 0.192,-0.256 0.16,-0.096 0.32,-0.096 0.16,0 0.288,0.064 0.128,0.064 0.192,0.192 0.096,0.096 0.096,0.288 0,0.128 -0.032,0.192 l -5.12,14.144 q -0.416,1.184 -0.96,2.56 -0.544,1.408 -1.248,2.624 -0.672,1.248 -1.568,2.016 -0.864,0.8 -1.952,0.8 z"
     id="text5"
     aria-label="big app factory" />
</svg>
