<?xml version="1.0" encoding="UTF-8" standalone="no"?>
<svg
   width="350"
   height="74.472534"
   version="1.1"
   id="svg4"
   sodipodi:docname="logo.svg"
   inkscape:version="1.4 (e7c3feb1, 2024-10-09)"
   inkscape:export-filename="logo-horizontal-slogan.png"
   inkscape:export-xdpi="96"
   inkscape:export-ydpi="96"
   xmlns:inkscape="http://www.inkscape.org/namespaces/inkscape"
   xmlns:sodipodi="http://sodipodi.sourceforge.net/DTD/sodipodi-0.dtd"
   xmlns:xlink="http://www.w3.org/1999/xlink"
   xmlns="http://www.w3.org/2000/svg"
   xmlns:svg="http://www.w3.org/2000/svg">
  <sodipodi:namedview
     id="namedview4"
     pagecolor="#530000"
     bordercolor="#000000"
     borderopacity="0.25"
     inkscape:showpageshadow="2"
     inkscape:pageopacity="0.0"
     inkscape:pagecheckerboard="0"
     inkscape:deskcolor="#d1d1d1"
     showguides="false"
     inkscape:zoom="1.8221178"
     inkscape:cx="150.10006"
     inkscape:cy="36.495994"
     inkscape:window-width="1456"
     inkscape:window-height="858"
     inkscape:window-x="0"
     inkscape:window-y="38"
     inkscape:window-maximized="0"
     inkscape:current-layer="svg4" />
  <defs
     id="defs1">
    <pattern
       inkscape:collect="always"
       xlink:href="#pattern6-7"
       preserveAspectRatio="xMidYMid"
       id="pattern12"
       patternTransform="translate(190,352)" />
    <pattern
       patternUnits="userSpaceOnUse"
       width="29"
       height="20"
       patternTransform="translate(190,350)"
       preserveAspectRatio="xMidYMid"
       style="fill:#000000"
       id="pattern6-7"
       inkscape:label=""
       inkscape:collect="always"
       inkscape:isstock="true">
      <path
         style="fill:none;stroke:#000000;stroke-width:10;stroke-linecap:butt;stroke-dasharray:none;paint-order:stroke markers fill;stop-color:#000000"
         d="M 0,5 C 19,5 10,15 29,15"
         id="path4-2"
         sodipodi:nodetypes="cc" />
    </pattern>
    <rect
       x="116.34813"
       y="206.35329"
       width="190.98656"
       height="31.831093"
       id="rect6" />
    <rect
       x="313.92044"
       y="-15.366735"
       width="420.93878"
       height="99.334961"
       id="rect5" />
    <rect
       x="123.48269"
       y="104.82308"
       width="159.15547"
       height="29.635845"
       id="rect2" />
  </defs>
  <text
     xml:space="preserve"
     id="text6"
     style="font-style:normal;font-variant:normal;font-weight:normal;font-stretch:normal;font-size:29.3333px;font-family:Merriweather;-inkscape-font-specification:Merriweather;text-align:start;writing-mode:lr-tb;direction:ltr;white-space:pre;shape-inside:url(#rect6);display:inline;opacity:1;fill:#ffffff;fill-opacity:1;stroke:#ffffff;stroke-opacity:1"
     transform="translate(-10.621647,-49.596674)" />
  <text
     xml:space="preserve"
     style="font-weight:300;font-size:21.3333px;font-family:Merriweather;-inkscape-font-specification:'Merriweather Light';text-align:start;writing-mode:lr-tb;direction:ltr;text-anchor:start;opacity:0.3;fill:#bbbbbb;stroke:#ffffff"
     x="163.35173"
     y="23.395315"
     id="text4"><tspan
       sodipodi:role="line"
       id="tspan4"
       x="163.35173"
       y="23.395315" /></text>
  <g
     id="g13"
     transform="translate(-10.621647,-17.216768)">
    <g
       transform="matrix(0.28346457,0,0,0.28346457,10.621647,17.216768)"
       fill="#ffffff"
       id="g3">
      <svg
         width="400"
         height="263"
         viewBox="0 0 400 263"
         version="1.1"
         id="svg2">
        <g
           stroke="none"
           class="c1"
           id="g2">
          <path
             d="m 323.81502,1.3630523 c 0,2.4613018 -3.9227,9.7682917 -6.76858,12.6910877 -4.15345,4.384194 -6.384,4.461109 -14.6909,0.615325 -4.15344,-1.922892 -8.69147,-3.38429 -11.07586,-3.615037 -11.76809,-1.2306507 -22.92087,8.076147 -24.15152,20.228824 -0.23075,2.307471 -0.76916,4.153447 -1.07682,4.153447 -0.9999,0 -0.84607,-8.999135 0.15383,-12.537256 1.15374,-4.307278 0.4615,-5.076435 -1.53831,-1.769061 -2.9228,4.691857 -3.07663,14.537064 -0.38458,21.536391 1.07682,2.922796 -1.30757,0.846073 -5.3841,-4.538025 -5.15335,-6.845496 -9.07605,-9.922123 -14.38323,-11.152774 -7.76848,-1.845976 -14.84473,0.692241 -23.38237,8.383809 -5.15335,4.691857 -8.22997,5.922508 -12.07576,4.845688 -2.92279,-0.769156 -2.76896,-1.922892 0.30766,-2.692049 1.38449,-0.384578 2.9228,-0.999903 3.30738,-1.384482 1.15373,-1.230651 -2.07672,-3.461205 -6.46092,-4.538025 -3.23046,-0.769157 -4.53802,-0.692241 -8.30689,0.384578 -3.69196,1.07682 -5.23027,2.076724 -8.84531,5.768677 l -4.30727,4.538025 -1.30757,-2.076724 c -5.92251,-9.306797 -13.99865,-9.999038 -21.22873,-1.845976 -1.76906,1.999808 -3.53812,4.384194 -3.99961,5.307182 -0.4615,0.999904 -1.15374,1.769061 -1.53832,1.769061 -0.38458,0 -0.46149,-0.769157 -0.23074,-1.769061 0.30766,-0.922988 0.69224,-2.692049 0.9999,-3.9227 l 0.46149,-2.30747 -2.23055,1.615229 c -1.23065,0.922988 -4.46111,3.691953 -7.23008,6.23017 -4.69185,4.307278 -4.99951,4.768773 -4.9226,7.768484 0.15383,4.153447 1.07682,5.076435 5.15335,5.076435 2.38439,0 4.3842,-0.692241 7.30699,-2.615133 5.84559,-3.768868 9.61446,-3.999616 15.22931,-0.922988 2.4613,1.307566 5.23026,2.384386 6.15325,2.384386 0.92299,0 4.30728,-1.230651 7.53774,-2.768965 4.99952,-2.384386 6.46091,-2.768964 9.76829,-2.461301 5.92251,0.615325 6.69166,2.153639 0.9999,2.153639 -3.9227,0 -5.07643,0.384578 -8.38381,2.692048 -6.84549,4.768773 -10.07595,5.999424 -15.07547,5.614845 -2.53822,-0.153831 -4.53803,-0.07692 -4.53803,0.153832 0,1.23065 4.30728,2.30747 8.84531,2.30747 3.99961,0 5.92251,-0.461494 10.46053,-2.692049 3.15354,-1.461398 6.384,-2.692049 7.23007,-2.692049 0.84608,0 3.61504,0.922988 6.15326,1.999808 10.3067,4.384194 14.07557,4.153447 22.15172,-1.307567 3.07662,-1.999807 7.15315,-4.076531 9.07605,-4.61494 3.23045,-0.846073 4.07653,-0.769157 8.07614,0.769156 12.30651,4.691857 12.92184,4.845688 17.69061,4.46111 5.46101,-0.384579 10.69128,-2.538218 16.07538,-6.614749 2.92279,-2.230554 4.69185,-4.538025 7.30699,-9.306797 5.76867,-10.768196 9.07605,-12.152678 22.92087,-9.537545 7.69157,1.461398 11.92193,0.692242 17.53677,-2.999711 3.99962,-2.615133 7.99924,-8.229978 7.99924,-11.22969 0,-1.845976 -0.23075,-1.692145 -3.38429,1.845977 -4.30728,4.922603 -9.38372,7.537736 -15.61389,7.922315 -3.23046,0.230747 -4.84569,0.07692 -4.84569,-0.53841 0,-0.461494 0.76916,-0.846072 1.76906,-0.846072 4.92261,-0.07692 13.84483,-6.845496 16.61379,-12.537256 1.92289,-3.999616 2.69205,-9.4606292 1.99981,-13.5371603 -0.53841,-3.15354294 -1.92289,-4.3841938 -1.92289,-1.8459764"
             id="i1" />
          <path
             d="m 239.43852,20.591973 c -1.84598,0.615325 -3.30738,1.384482 -3.30738,1.615229 0,0.307663 2.53822,0.53841 5.61485,0.53841 4.61494,0 6.15325,0.384578 9.30679,2.153639 4.46111,2.461302 4.30728,2.461302 4.30728,0.692241 0,-1.538314 -2.38438,-3.999616 -5.15335,-5.461013 -2.23055,-1.153736 -6.84549,-0.999904 -10.76819,0.461494"
             id="i2" />
          <path
             d="m 200.21152,23.437853 c -3.23046,1.076819 -9.46063,5.384098 -9.46063,6.614748 0,0.384579 1.4614,0 3.30737,-0.769156 4.84569,-2.153639 10.7682,-2.538218 17.84444,-1.230651 3.38429,0.615325 6.30709,0.922988 6.53783,0.692241 0.76916,-0.769157 -4.61494,-4.768772 -7.46082,-5.537929 -3.76886,-1.07682 -6.76858,-0.999904 -10.76819,0.230747"
             id="i3" />
          <path
             d="m 230.43938,59.895886 c -0.69224,1.153735 9.07605,7.922315 13.30641,9.152966 8.84531,2.538217 19.30584,0 26.99741,-6.537833 3.61503,-3.076627 2.61513,-3.768868 -1.84598,-1.230651 -4.76877,2.615133 -10.53745,4.153447 -16.30612,4.153447 -3.84579,0 -5.69176,-0.53841 -10.99895,-3.076627 -5.99942,-2.922796 -10.3067,-3.845785 -11.15277,-2.461302"
             id="i4" />
          <path
             d="m 135.75618,65.433815 c -0.23075,0.384578 -0.4615,4.153447 -0.4615,8.229978 0,4.153446 -0.46149,16.844534 -1.07682,28.304967 -0.61532,11.38352 -1.23065,25.61293 -1.30756,31.53543 l -0.23075,10.7682 h 10.38362 10.38361 l -0.23074,-6.53783 c -0.0769,-3.61504 -0.92299,-15.38314 -1.76906,-26.15134 -0.92299,-10.76819 -1.84598,-25.689834 -2.15364,-33.073739 l -0.4615,-13.460245 -6.30708,-0.230747 c -3.69196,-0.153831 -6.46092,0.07692 -6.76858,0.615326 m 10.69128,21.690222 c 0.69224,4.461109 2.15364,40.688393 1.69214,41.149893 -0.23075,0.30766 -0.61532,0.30766 -0.76915,0.15383 -0.30767,-0.30767 -1.69215,-19.69042 -2.38439,-34.76589 -0.30766,-5.768676 -0.15383,-8.999135 0.30766,-8.999135 0.4615,0 0.92299,1.153735 1.15374,2.461302"
             id="i5" />
          <path
             d="m 161.21527,72.202395 c -0.23075,0.384578 -0.4615,2.230554 -0.53841,4.076531 -0.0769,1.845976 -0.76916,15.690799 -1.53832,30.689354 -0.76915,14.99856 -1.46139,29.53562 -1.61522,32.30459 l -0.15384,4.99952 9.38372,0.23075 9.38371,0.23074 v -2.92279 c 0,-1.61523 -0.46149,-9.53755 -1.07682,-17.53678 -1.38448,-17.99827 -2.9228,-42.380539 -3.07663,-48.0723 l -0.0769,-4.230362 -5.15335,-0.230747 c -2.76897,-0.153832 -5.30719,0.07691 -5.53793,0.461494"
             id="i6" />
          <path
             d="m 182.67474,72.356226 c -0.23074,0.384578 -0.38458,2.922796 -0.30766,5.614845 0.0769,2.615133 -0.23075,11.691183 -0.76916,20.151908 -0.46149,8.460721 -1.23065,22.459381 -1.53831,31.150851 -0.53841,13.69099 -0.46149,15.92155 0.53841,16.6907 0.69224,0.53841 0.92299,1.23065 0.61532,1.53832 -0.30766,0.38457 -19.84424,0.76915 -43.38044,0.9999 l -42.842034,0.38458 -0.461494,22.15172 c -0.307663,12.15267 -0.692241,22.38246 -0.999904,22.61321 -0.230747,0.23074 -0.692241,0.23074 -0.999904,-0.0769 -0.769156,-0.76916 -1.845976,-31.68926 -1.461397,-40.84223 l 0.384578,-7.69157 18.305935,-0.38457 18.30593,-0.38458 0.23075,-12.92184 c 0.0769,-7.8454 -0.0769,-12.84492 -0.53841,-12.84492 -0.38458,0 -16.84454,7.99924 -36.534952,17.69061 L 55.37929,153.88685 v 18.76742 c 0,10.46054 -0.307662,18.99818 -0.692241,19.22892 -0.384578,0.30767 -12.844918,1.38449 -27.689645,2.53822 C 12.152678,195.57515 0,196.72888 0,197.03655 c 0,0.92298 19.152005,1.53831 64.993751,2.23055 25.382174,0.30766 46.226319,0.69224 46.380159,0.69224 0.0769,0.0769 0.15383,0.38458 0.15383,0.69224 0,0.38458 -11.537354,0.92299 -25.536008,1.15374 -23.613115,0.38458 -35.227382,1.38448 -35.227382,2.84588 0,0.30766 1.461398,0.76915 3.307374,1.07682 5.537929,0.84607 17.45986,3.84578 17.45986,4.38419 0,0.30766 -7.153159,0.76916 -15.921547,0.9999 -21.997884,0.69225 -42.611287,1.76907 -43.149697,2.30748 -0.230747,0.23074 -0.230747,0.61532 -0.07691,0.76915 0.153831,0.15383 8.922219,0.53841 19.382751,0.84607 18.767427,0.61533 19.152005,0.61533 19.76733,2.30748 0.615326,1.69214 0.692242,1.69214 29.381791,2.15363 35.611968,0.53841 81.376798,2.15364 81.376798,2.84588 0,0.69225 -11.07587,1.38449 -31.92001,1.99981 -8.8453,0.30766 -16.45996,0.76916 -16.92145,1.07682 -0.38458,0.30766 -16.998371,0.76916 -36.919532,1.07682 -36.304202,0.53841 -44.226517,0.84607 -44.226517,2.07672 0,0.38458 2.538218,0.69225 5.614845,0.69225 2.999711,0 17.152197,0.38457 31.304682,0.84607 22.843957,0.84607 25.920585,1.07682 26.920488,2.23055 1.230651,1.4614 -2.461301,1.30757 63.686194,2.76897 36.38111,0.84607 29.15104,1.84597 -24.45919,3.30737 -39.380835,1.15374 -72.300746,2.38439 -75.146627,2.84588 -4.153446,0.61533 -2.84588,1.84598 1.922892,1.84598 4.691857,0 29.612538,1.15373 43.457365,1.99981 8.53764,0.46149 10.46053,1.30756 5.15335,2.15364 -5.3841,0.84607 -3.30737,1.84597 4.84569,2.30747 16.53687,1.07682 59.07124,1.9998 88.22229,1.92289 31.30467,0 86.60705,-1.61523 87.53003,-2.53822 0.84607,-0.84607 -1.53831,-1.99981 -4.23036,-1.99981 -2.84588,0 -3.46121,-1.30756 -0.76916,-1.84597 0.92299,-0.23075 8.61456,-0.53841 17.07528,-0.76916 36.84261,-1.07682 43.45736,-1.53831 41.84213,-3.15354 -0.15383,-0.15384 -18.30593,-0.76916 -40.30381,-1.4614 -39.91924,-1.23065 -70.45477,-2.61513 -71.07009,-3.23046 -0.15383,-0.15383 -0.15383,-0.46149 0,-0.61533 0.38457,-0.38457 49.99519,-1.9998 59.99424,-1.9998 6.384,0 7.53773,-0.23075 8.46071,-1.4614 0.99991,-1.38448 3.23046,-1.53832 35.30431,-2.38439 18.84433,-0.53841 34.3813,-1.07682 34.53514,-1.23065 1.69215,-1.61523 -4.69187,-1.99981 -43.45736,-2.61513 -23.22853,-0.30766 -43.22661,-0.84607 -44.53418,-1.07682 -1.23065,-0.23075 -13.61407,-0.76916 -27.4589,-1.30757 -13.92173,-0.53841 -25.22834,-1.15373 -25.22834,-1.4614 0,-0.30766 9.46063,-0.76915 20.99797,-1.07682 11.46044,-0.30766 30.45862,-0.84607 42.07288,-1.23065 11.61427,-0.38457 28.15114,-0.69224 36.68878,-0.76915 14.07558,0 17.92136,-0.4615 15.61388,-1.92289 -2.15364,-1.38449 1.61523,-1.76907 20.38266,-2.30748 11.22969,-0.30766 20.38265,-0.84607 20.38265,-1.15373 0,-0.92299 -7.9223,-1.4614 -33.07374,-2.30747 -12.92183,-0.4615 -23.92077,-0.9999 -24.38227,-1.15374 -2.53822,-0.84607 -0.23075,-1.76906 8.61456,-3.53812 5.30718,-0.9999 9.61446,-2.07672 9.61446,-2.38438 0,-1.38449 -12.46033,-2.30747 -38.38092,-2.84588 -17.69061,-0.38458 -23.45928,-0.69224 -23.76694,-1.4614 -0.23075,-0.69224 7.99923,-0.92299 39.61157,-0.92299 35.91962,0 72.99297,-0.9999 73.99288,-1.92289 0.15384,-0.23075 0.15384,-0.53841 0,-0.69224 -0.38458,-0.30767 -29.84329,-2.69205 -42.22671,-3.38429 l -9.61446,-0.53841 -0.38458,-14.53707 -0.38458,-14.53706 -3.07663,-1.07682 c -1.69214,-0.61533 -7.92231,-2.30747 -13.84482,-3.76887 -5.92251,-1.53831 -14.30632,-3.76887 -18.53668,-4.99952 -4.30728,-1.23065 -7.99923,-2.23055 -8.15306,-2.23055 -0.23075,0 -0.61533,8.46072 -0.84607,18.76742 -0.53841,18.53668 -0.99991,23.5362 -2.07673,23.5362 -1.15373,0 -1.53831,-12.53725 -1.53831,-46.30324 v -34.45822 l -13.2295,-6.61475 -13.30641,-6.537834 -9.22988,5.153354 c -11.15278,6.23017 -11.07586,6.15325 -9.15297,7.61465 1.4614,1.07682 1.4614,1.07682 -0.0769,1.15373 -0.84608,0 -6.76858,-2.53821 -13.15259,-5.69176 -6.384,-3.07662 -12.84491,-6.23017 -14.38323,-6.99932 l -2.84588,-1.30757 -11.3066,6.384 c -6.30709,3.46121 -12.30651,6.99933 -13.46025,7.76849 -2.15364,1.46139 -2.15364,1.46139 -2.84588,-0.30767 -0.30766,-0.9999 -0.84607,-4.23036 -1.15373,-7.15316 -2.61514,-27.843472 -2.15364,-25.612918 -5.07644,-26.689737 -2.76896,-0.922988 -3.07662,-2.461302 -0.38458,-1.999808 2.38439,0.461494 3.61504,-0.922988 3.30738,-3.768868 -0.23075,-2.076724 -0.38458,-2.153639 -4.99952,-2.384386 -2.69205,-0.153832 -4.9226,0.153831 -5.23027,0.615325 m 45.99558,39.611574 c 1.15374,1.4614 1.92289,3.07663 1.69215,3.46121 -0.23075,0.46149 0.46149,1.15373 1.53831,1.53831 1.53831,0.53841 1.99981,1.23065 1.76906,2.53822 -0.23075,1.4614 -0.69224,1.69214 -4.07653,1.69214 h -3.84579 l -0.23074,-5.99942 c -0.15383,-3.23046 0.0769,-5.92251 0.38458,-5.92251 0.30766,0 1.61522,1.23065 2.76896,2.69205 m 16.45996,8.76839 c 1.07682,1.4614 1.38448,2.4613 0.92298,2.9228 -0.46149,0.46149 -0.69224,2.4613 -0.53841,4.53802 0.23075,3.23046 0.4615,3.76887 2.15364,4.15345 3.38429,0.76915 2.30747,2.69205 -1.53831,2.69205 h -3.46121 l -0.23074,-8.3069 c -0.0769,-4.53802 0.0769,-8.22998 0.46149,-8.22998 0.30766,0 1.38448,0.99991 2.23056,2.23056 m -31.76618,2.15364 c 0.69224,4.46111 0.53841,57.91751 -0.15383,57.91751 -0.92299,0 -1.69215,-19.45967 -1.69215,-42.07288 0,-17.30603 0.61533,-22.92087 1.84598,-15.84463 m 58.91741,21.38256 c 0,12.92183 -0.30766,23.45928 -0.61532,23.45928 -0.84607,0 -1.76906,-36.53495 -1.15374,-42.61129 0.23075,-2.38438 0.76916,-4.30727 1.07682,-4.30727 0.38458,0 0.69224,10.53744 0.69224,23.45928 m -66.60898,-12.53726 c 0.61533,9.69138 -0.9999,49.84136 -1.99981,49.84136 -0.69224,0 -0.84607,-42.84203 -0.0769,-52.14883 0.23075,-3.4612 0.69224,-6.30708 0.9999,-6.30708 0.30766,0 0.76916,3.84578 1.07682,8.61455 m 56.30228,-3.07663 c 0.69224,5.30719 0.61533,41.84214 -0.15383,42.99587 -1.4614,2.4613 -1.84598,-2.38439 -1.84598,-23.99769 0,-23.07471 0.69224,-29.22796 1.99981,-18.99818 m -29.84328,-1.30756 c 0.15383,0.15383 0.30766,1.30756 0.30766,2.53822 0.0769,1.30756 0.53841,2.53821 1.15373,2.76896 2.30747,0.92299 0.92299,2.69205 -2.4613,3.23046 -5.15335,0.76916 -5.76867,0.23075 -5.76867,-4.53803 0,-2.30747 0.23074,-4.38419 0.53841,-4.61494 0.46149,-0.46149 5.53792,0.0769 6.23017,0.61533 m 53.07182,1.30756 c 0.15384,0.84608 -0.23075,1.38449 -0.92299,1.38449 -1.61523,0 -1.53832,0.46149 0.38458,2.38438 2.23055,2.23056 0.99991,3.15355 -3.61504,2.84588 l -3.76887,-0.23074 -0.23075,-2.99972 c -0.38457,-4.61494 0.0769,-5.23026 4.23037,-4.9226 2.76896,0.15383 3.76886,0.53841 3.9227,1.53831 m -35.22739,12.61418 c 0.15384,0.23074 -0.23074,0.76915 -0.9999,1.15373 -1.92289,1.07682 -1.76906,5.30718 0.23075,5.84559 0.84607,0.23075 1.53831,0.92299 1.53831,1.53832 0,0.84607 -0.92299,0.9999 -3.99961,0.84607 l -4.07654,-0.23075 -0.23074,-4.15344 c -0.38458,-5.99943 0,-6.53784 3.84578,-5.92251 1.76906,0.30766 3.46121,0.69224 3.69195,0.92299 m -16.15229,0 c 0,0.30766 -0.53841,0.92298 -1.15373,1.38448 -1.4614,1.07682 -0.76916,5.84559 0.84607,5.84559 2.53822,0 0.76915,1.4614 -2.38439,1.99981 -5.15335,0.76915 -5.76867,0.23075 -5.76867,-4.53803 0,-2.30747 0.23074,-4.38419 0.53841,-4.61494 0.61532,-0.69224 7.92232,-0.69224 7.92232,-0.0769 m 51.53351,0.23074 c 0,0.38458 -0.53841,0.84608 -1.15375,1.15374 -0.69224,0.23075 -1.15373,1.38448 -1.15373,2.76896 0,1.38449 0.4615,2.53822 1.15373,2.76897 2.53823,0.9999 0.923,1.92289 -2.84588,1.69214 l -4.07653,-0.23074 -0.23075,-3.38429 c -0.38457,-4.99952 0,-5.46102 4.46111,-5.46102 2.07673,0 3.8458,0.30767 3.8458,0.69224 m -171.52197,15.46006 c 0,0.38457 -0.53841,0.76915 -1.15374,0.76915 -1.69214,0 -1.38448,2.15364 0.4615,3.07663 1.07682,0.61532 1.46139,1.4614 1.30756,2.9228 -0.23074,1.76906 -0.61532,2.07672 -3.15354,2.30747 -1.61523,0.15383 -3.46121,-0.15384 -4.07654,-0.69225 -1.07681,-0.92298 -1.5383,-7.61465 -0.53841,-8.61455 0.76916,-0.84607 7.15316,-0.61533 7.15316,0.23075 m 13.30641,1.84597 c -0.38458,2.30747 -0.23075,2.69205 1.38448,2.9228 1.38449,0.15383 1.84598,0.69224 1.84598,2.15364 0,1.84597 -0.23075,1.92289 -4.23035,1.92289 h -4.23037 l -0.23074,-3.76887 c -0.30767,-5.07643 0.0769,-5.84559 3.23046,-5.84559 2.61512,0 2.69204,0.0769 2.23054,2.61513 m 17.45986,-1.92289 c 0,0.38458 -0.69224,0.84607 -1.53831,1.07682 -2.07673,0.53841 -1.9229,1.76906 0.38458,3.30737 2.84588,1.84598 2.4613,3.84579 -0.76916,4.46111 -4.23035,0.84608 -5.76867,-0.46149 -5.76867,-4.84568 0,-1.99981 0.23075,-3.9227 0.53841,-4.15345 0.76916,-0.76916 7.15316,-0.61533 7.15316,0.15383 m 12.69109,2.38439 c 0.53841,1.46139 1.38448,2.69204 1.99981,2.69204 0.61532,0 1.07682,0.76916 1.07682,1.9229 0,1.76906 -0.23075,1.92289 -3.84579,1.92289 h -3.84578 l -0.23075,-3.76887 c -0.30766,-4.76877 0.15383,-5.99942 2.30747,-5.69176 1.07682,0.15383 1.92289,1.07682 2.53822,2.9228 m 17.30603,-2.30747 c 0,0.38457 -0.53841,0.76915 -1.15374,0.76915 -1.61523,0 -1.4614,1.99981 0.23075,3.23046 0.76915,0.53841 1.61523,1.61523 1.92289,2.38439 0.61533,1.69214 -2.61513,3.15354 -5.76868,2.4613 -1.9998,-0.4615 -2.15364,-0.76916 -2.15364,-4.53803 0,-2.23055 0.23075,-4.30727 0.53841,-4.53802 0.76916,-0.84607 6.38401,-0.61533 6.38401,0.23075 m 59.22507,0 c 0,0.38457 -0.53841,0.76915 -1.15373,0.76915 -1.69215,0 -1.38449,2.30747 0.53841,4.3842 2.23055,2.38438 1.07681,3.4612 -3.69196,3.15354 l -3.76887,-0.23075 -0.23074,-3.38429 c -0.38458,-4.99952 0,-5.46101 4.46111,-5.46101 2.07672,0 3.84578,0.30766 3.84578,0.76916 m 49.61062,0.69224 c -0.23075,0.84607 -0.0769,1.69214 0.38457,1.9998 0.4615,0.23075 0.61532,0.84608 0.30766,1.23066 -0.23075,0.46149 0.15384,1.23065 0.92298,1.84597 1.30757,0.92299 1.30757,1.07682 0.23075,1.53832 -0.69224,0.23074 -2.76896,0.38457 -4.61494,0.23074 -3.30737,-0.23074 -3.38429,-0.30766 -3.61504,-3.23046 -0.38457,-4.38419 0.15383,-5.07643 3.69196,-5.07643 2.76896,0 3.15354,0.15383 2.69205,1.4614 m -49.61062,13.84482 c 0,0.38458 -0.53841,0.84607 -1.15373,1.15373 -1.84598,0.69225 -1.38449,3.38429 0.84607,4.76878 2.61513,1.76906 1.4614,2.61513 -3.61504,2.84588 l -4.15345,0.15383 -0.23074,-4.84569 -0.23075,-4.76877 h 4.30728 c 2.30747,0 4.23036,0.30766 4.23036,0.69224 m 51.53351,0.0769 c 0,0.38458 -0.53841,0.76916 -1.15374,0.76916 -1.53831,0 -1.53831,3.69195 0.0769,5.53793 1.15373,1.23065 1.15373,1.38448 0.0769,1.76906 -0.61532,0.30766 -2.4613,0.38458 -4.07653,0.23075 -2.92279,-0.23075 -2.99971,-0.30766 -3.23046,-3.61504 -0.38457,-4.99952 0,-5.46101 4.46112,-5.46101 2.07673,0 3.84579,0.30766 3.84579,0.76915 m -172.52188,1.61523 c 2.15364,0.84608 2.15364,0.84608 0.4615,1.53832 -2.23056,0.76915 -2.30747,3.4612 -0.23075,4.53802 0.84607,0.4615 1.53831,1.38449 1.53831,1.99981 0,0.92299 -0.84607,1.07682 -3.99961,0.92299 l -4.07653,-0.23075 -0.23075,-3.76887 c -0.15383,-2.07672 -0.0769,-4.23036 0.15383,-4.76877 0.4615,-1.30757 3.38429,-1.38448 6.384,-0.23075 m 31.76618,0.4615 c 0.23075,0.15383 -0.23075,0.69224 -0.9999,1.07682 -1.76906,0.9999 -1.69215,3.53812 0.23074,4.53802 0.84608,0.4615 1.53832,1.38449 1.53832,1.99981 0,0.92299 -0.84608,1.07682 -3.99962,0.92299 l -4.07653,-0.23075 -0.23075,-3.76887 c -0.38457,-5.53793 0,-6.07634 3.9227,-5.46101 1.76906,0.30766 3.38429,0.69224 3.61504,0.92299 m 29.99712,-0.0769 c 0.15383,0.23075 -0.23075,0.76916 -0.99991,1.15374 -1.92289,1.07682 -1.61523,2.61513 0.84607,4.38419 2.76896,2.07672 1.46139,3.38429 -2.99971,3.07663 l -3.38429,-0.23075 -0.23074,-4.9226 -0.23075,-4.92261 3.30737,0.53841 c 1.76906,0.30767 3.46121,0.69225 3.69196,0.92299 m 14.61398,0.0769 c 0.23073,0.23075 -0.23075,0.69224 -0.99991,1.07682 -1.99981,1.15373 -1.61523,2.69205 1.15374,4.84569 2.92278,2.30747 1.99979,2.99971 -3.30738,2.61513 l -3.38429,-0.23075 -0.23074,-3.76887 c -0.38458,-5.30718 0,-5.84559 3.4612,-5.30718 1.61523,0.23075 3.07663,0.61533 3.30738,0.76916 m -59.76349,0.61532 c -0.15383,0.38458 -0.69224,0.76916 -1.15373,0.76916 -0.53841,0 -1.07682,0.76916 -1.23065,1.69215 -0.23075,1.30756 0.23074,1.9998 1.76906,2.53821 3.38429,1.30757 1.92289,2.69205 -2.76897,2.69205 h -4.15345 l -0.23074,-3.38429 c -0.38458,-5.07643 0.0769,-5.61484 4.23036,-5.30718 2.07672,0.15383 3.61504,0.53841 3.53812,0.9999 m 30.53553,-0.46149 c 0,0.38458 -0.53841,0.84607 -1.15374,1.15373 -1.76906,0.69225 -1.4614,4.07654 0.4615,4.53803 3.07661,0.84607 1.15373,2.4613 -2.84588,2.4613 h -3.76887 l -0.23075,-3.38429 c -0.38458,-4.9226 0.0769,-5.46101 4.07653,-5.46101 1.92289,0 3.46121,0.30766 3.46121,0.69224"
             id="i7" />
          <path
             d="m 174.90626,258.03068 c -0.23075,0.61533 -0.30766,1.92289 -0.15383,2.9228 l 0.23074,1.76906 h 24.61302 24.61302 v -2.69205 -2.69205 l -24.45919,-0.23075 c -20.69031,-0.15383 -24.45918,0 -24.84376,0.92299"
             id="i8" />
          <path
             d="m 129.06451,258.26143 c -6.69166,0.15383 -12.15267,0.53841 -12.15267,0.92299 0,0.76915 10.84511,1.46139 34.07364,2.15363 l 17.61369,0.4615 -0.30766,-1.84598 -0.23075,-1.84597 h -13.46024 c -7.38391,-0.0769 -18.92126,0.0769 -25.53601,0.15383"
             id="i9" />
          <path
             d="m 230.28555,258.87675 c -0.9999,2.4613 0.0769,2.9228 6.99933,2.84588 13.46024,-0.23074 45.76483,-1.9998 45.76483,-2.4613 0,-0.30766 -8.84531,-0.76916 -19.76733,-0.9999 -29.53562,-0.76916 -32.53534,-0.76916 -32.99683,0.61532"
             id="i10" />
        </g>
      </svg>
    </g>
    <g
       id="g12"
       transform="translate(0,0.72654864)">
      <text
         xml:space="preserve"
         style="font-style:normal;font-variant:normal;font-weight:normal;font-stretch:normal;font-size:13.3333px;font-family:Merriweather;-inkscape-font-specification:Merriweather;text-align:start;writing-mode:lr-tb;direction:ltr;text-anchor:start;opacity:0.3;fill:#bbbbbb;fill-opacity:1;stroke:#ffffff;stroke-opacity:1"
         x="126.51218"
         y="74.771843"
         id="text7"><tspan
           sodipodi:role="line"
           id="tspan7"
           x="126.51218"
           y="74.771843"
           style="font-style:normal;font-variant:normal;font-weight:300;font-stretch:normal;font-size:13.3333px;font-family:Merriweather;-inkscape-font-specification:'Merriweather Light';fill:#bbbbbb;fill-opacity:1;stroke:#ffffff;stroke-opacity:1">Where Big Ideas Become Bigger Apps</tspan></text>
      <text
         xml:space="preserve"
         style="font-weight:300;font-size:32px;line-height:0;font-family:Merriweather;-inkscape-font-specification:'Merriweather Light';text-align:start;letter-spacing:0.8px;writing-mode:lr-tb;direction:ltr;text-anchor:start;opacity:1;fill:url(#pattern12);fill-opacity:1;stroke:#ffffff"
         x="124.58031"
         y="54.137135"
         id="text5"><tspan
           sodipodi:role="line"
           id="tspan5"
           x="124.58031"
           y="54.137135"
           style="font-style:normal;font-variant:normal;font-weight:200;font-stretch:normal;font-size:32px;line-height:0;font-family:Dosis;-inkscape-font-specification:'Dosis Ultra-Light';letter-spacing:0.8px;fill:#03ffff;fill-opacity:1">big app factory</tspan></text>
    </g>
  </g>
</svg>
